<svg width="141" height="95" viewBox="0 0 141 95" fill="none" xmlns="http://www.w3.org/2000/svg">
<path d="M21.1223 52.1829H25.1079L25.9987 55.4885H29.6091L24.6858 38.1399H21.4037L16.668 55.4885H20.2784L21.1223 52.1829ZM24.1934 48.9008H21.9897L23.0916 43.2273L24.1934 48.9008ZM35.751 37.8115C31.4841 37.8115 29.3743 41.3751 29.3743 46.7907V46.8142C29.3743 52.2533 31.4841 55.8169 35.751 55.8169C37.2327 55.8169 38.4541 55.3858 39.4177 54.5969C39.506 54.8538 39.5565 55.1434 39.5565 55.4886H43.2919C43.2919 54.1352 42.5557 52.7031 41.4706 51.4211C41.9083 50.1163 42.1277 48.563 42.1277 46.8142C42.1277 41.3752 40.0178 37.8115 35.751 37.8115ZM35.751 41.0936C37.5797 41.0936 38.4706 42.6413 38.4706 46.8142C38.4706 47.5387 38.442 48.179 38.388 48.7509C36.9952 47.8629 35.5599 47.3036 34.4584 47.3036C34.4584 50.8545 35.006 50.8392 35.5294 51.1413C35.8349 51.3178 36.4607 51.6506 37.1146 52.1051C36.7389 52.3974 36.2863 52.5343 35.751 52.5343C33.9224 52.5343 33.0318 50.9874 33.0318 46.8378V46.8142C33.0318 42.6413 33.9224 41.0936 35.751 41.0936ZM44.1166 38.1399V50.5419C44.1166 52.0657 44.5152 53.402 45.406 54.3162C46.3204 55.2541 47.7505 55.8168 49.837 55.8168C51.9235 55.8168 53.3536 55.2541 54.2679 54.3162C55.1823 53.402 55.5573 52.0656 55.5573 50.5418V38.1398H51.9938V49.9557C51.9938 50.8232 51.8531 51.4561 51.5249 51.8547C51.1733 52.2767 50.6341 52.4643 49.837 52.4643C49.0398 52.4643 48.5006 52.2767 48.1725 51.8547C47.8208 51.4561 47.6802 50.8232 47.6802 49.9557V38.1399H44.1166Z" fill="#2D4780"/>
<path d="M82.0859 55.4893H85.6495V41.423H86.47C87.3375 41.423 87.9235 41.5635 88.2987 41.8918C88.955 42.431 89.1192 43.1577 89.1192 44.0017C89.1192 44.6817 88.9316 45.4319 88.3456 45.9945C87.9001 46.4399 87.2202 46.604 86.5873 46.6508C86.306 46.6743 86.095 46.6743 85.6964 46.6743L89.5178 55.4893H93.5033L90.2211 48.5733C91.0416 48.1278 91.745 47.4246 92.2607 46.2993C92.6124 45.5256 92.7765 44.6112 92.7765 43.6735C92.7765 41.9855 92.2607 40.743 91.3699 39.6645C90.6196 38.7737 89.0489 38.1407 86.5873 38.1407H82.0859V55.4893ZM94.3705 55.4893H97.934V38.1407H94.3706L94.3705 55.4893ZM100.06 38.1407V50.5427C100.06 52.0665 100.459 53.4028 101.35 54.3171C102.264 55.2549 103.694 55.8176 105.781 55.8176C107.867 55.8176 109.297 55.2549 110.212 54.3171C111.126 53.4028 111.501 52.0664 111.501 50.5426V38.1406H107.938V49.9565C107.938 50.824 107.797 51.4569 107.469 51.8555C107.117 52.2775 106.578 52.4651 105.781 52.4651C104.983 52.4651 104.444 52.2775 104.116 51.8555C103.764 51.4569 103.624 50.824 103.624 49.9565V38.1407H100.06ZM112.994 50.0268C112.994 53.6841 114.729 55.8176 118.691 55.8176C121.996 55.8176 124.435 53.8248 124.435 50.5661C124.435 47.2605 122.559 46.0883 120.684 45.338C118.808 44.5879 116.932 44.2831 116.932 42.642C116.932 41.587 117.612 40.743 118.738 40.743C119.886 40.743 120.59 41.4932 120.637 42.7592H124.106C123.591 39.3364 121.809 37.7891 118.597 37.7891C115.291 37.7891 113.275 39.899 113.275 43.1812C113.275 46.1117 115.151 47.1901 117.026 47.9404C118.902 48.6671 120.777 49.0422 120.777 50.613C120.777 51.8555 120.074 52.6761 118.761 52.6761C117.214 52.6761 116.604 51.832 116.557 50.0268H112.994Z" fill="#2D4780"/>
<path fill-rule="evenodd" clip-rule="evenodd" d="M68.3087 27.1777L51.7734 65.9316L56.1416 67.7858L68.3087 39.1221L77.6553 61.1413L81.9513 59.3178L68.3087 27.1777Z" fill="#57BFDA"/>
<path fill-rule="evenodd" clip-rule="evenodd" d="M56.1415 67.7839C60.9055 56.3489 71.2772 46.4537 80.8455 46.4537V42.4512C68.1867 42.4512 57.4954 54.1549 51.7734 65.9298L56.1415 67.7839Z" fill="url(#paint0_linear_979_564)"/>
<defs>
<linearGradient id="paint0_linear_979_564" x1="57.7078" y1="63.6073" x2="61.5286" y2="54.4214" gradientUnits="userSpaceOnUse">
<stop stop-color="#54BCD7"/>
<stop offset="1" stop-color="#C5E5E2"/>
</linearGradient>
</defs>
</svg>
