<svg width="18" height="17" viewBox="0 0 18 17" fill="none" xmlns="http://www.w3.org/2000/svg">
<path d="M16.0509 3.52835H12.7345C12.5777 2.61989 12.1049 1.79605 11.3998 1.20221C10.6946 0.60837 9.80233 0.282715 8.88042 0.282715C7.95852 0.282715 7.06625 0.60837 6.36108 1.20221C5.65591 1.79605 5.18317 2.61989 5.0263 3.52835H1.70997C1.3642 3.52835 1.0326 3.66571 0.7881 3.9102C0.543606 4.1547 0.40625 4.4863 0.40625 4.83207V15.2618C0.40625 15.6076 0.543606 15.9392 0.7881 16.1837C1.0326 16.4282 1.3642 16.5655 1.70997 16.5655H16.0509C16.3966 16.5655 16.7282 16.4282 16.9727 16.1837C17.2172 15.9392 17.3546 15.6076 17.3546 15.2618V4.83207C17.3546 4.4863 17.2172 4.1547 16.9727 3.9102C16.7282 3.66571 16.3966 3.52835 16.0509 3.52835ZM6.27298 6.78765C6.27298 6.96053 6.20431 7.12634 6.08206 7.24858C5.95981 7.37083 5.79401 7.43951 5.62113 7.43951C5.44824 7.43951 5.28244 7.37083 5.16019 7.24858C5.03794 7.12634 4.96927 6.96053 4.96927 6.78765V5.48393C4.96927 5.31105 5.03794 5.14525 5.16019 5.023C5.28244 4.90075 5.44824 4.83207 5.62113 4.83207C5.79401 4.83207 5.95981 4.90075 6.08206 5.023C6.20431 5.14525 6.27298 5.31105 6.27298 5.48393V6.78765ZM6.35447 3.52835C6.49807 2.96748 6.82426 2.47036 7.28161 2.11536C7.73896 1.76035 8.30146 1.56766 8.88042 1.56766C9.45938 1.56766 10.0219 1.76035 10.4792 2.11536C10.9366 2.47036 11.2628 2.96748 11.4064 3.52835H6.35447ZM12.7916 6.78765C12.7916 6.96053 12.7229 7.12634 12.6007 7.24858C12.4784 7.37083 12.3126 7.43951 12.1397 7.43951C11.9668 7.43951 11.801 7.37083 11.6788 7.24858C11.5565 7.12634 11.4879 6.96053 11.4879 6.78765V5.48393C11.4879 5.31105 11.5565 5.14525 11.6788 5.023C11.801 4.90075 11.9668 4.83207 12.1397 4.83207C12.3126 4.83207 12.4784 4.90075 12.6007 5.023C12.7229 5.14525 12.7916 5.31105 12.7916 5.48393V6.78765Z" fill="#223DBB"/>
</svg>
