<svg width="24" height="24" viewBox="0 0 24 24" fill="none" xmlns="http://www.w3.org/2000/svg">
<g clip-path="url(#clip0_983_1344)">
<path d="M5.6024 12.9005V7.82129H3.69769C3.19252 7.82129 2.70805 8.02196 2.35085 8.37917C1.99364 8.73637 1.79297 9.22084 1.79297 9.72601V21.1543C1.79391 21.2722 1.82768 21.3875 1.89048 21.4873C1.95327 21.5871 2.04262 21.6675 2.14852 21.7194C2.25053 21.7658 2.36301 21.7843 2.47452 21.7732C2.58604 21.762 2.69261 21.7216 2.78342 21.6559L6.05318 19.2496H14.5863C14.8269 19.2567 15.0665 19.2143 15.2901 19.1251C15.5137 19.0359 15.7166 18.9017 15.8862 18.7309C16.0558 18.5601 16.1886 18.3562 16.2762 18.132C16.3639 17.9078 16.4046 17.668 16.3958 17.4274V16.71H9.41183C8.40151 16.71 7.43257 16.3086 6.71816 15.5942C6.00375 14.8798 5.6024 13.9109 5.6024 12.9005Z" fill="#2F43AC"/>
<path d="M20.2059 3.37695H9.41253C8.90737 3.37695 8.42289 3.57763 8.06569 3.93483C7.70849 4.29204 7.50781 4.77651 7.50781 5.28167V12.9005C7.50781 13.4057 7.70849 13.8902 8.06569 14.2474C8.42289 14.6046 8.90737 14.8052 9.41253 14.8052H18.0155L21.0503 17.1607C21.1406 17.2275 21.2468 17.2691 21.3584 17.2813C21.4699 17.2936 21.5827 17.2761 21.6853 17.2306C21.7933 17.1791 21.8846 17.0982 21.9486 16.9971C22.0127 16.896 22.0468 16.7788 22.0471 16.6592V5.28167C22.0474 4.78732 21.8555 4.31222 21.5119 3.95679C21.1683 3.60136 20.7 3.39343 20.2059 3.37695Z" fill="#2F43AC"/>
</g>
<defs>
<clipPath id="clip0_983_1344">
<rect width="22.8566" height="22.8566" fill="white" transform="translate(0.523438 0.837402)"/>
</clipPath>
</defs>
</svg>
