<svg width="24" height="24" viewBox="0 0 24 24" fill="none" xmlns="http://www.w3.org/2000/svg">
<mask id="mask0_979_630" style="mask-type:alpha" maskUnits="userSpaceOnUse" x="0" y="1" width="22" height="21">
<path d="M16.066 16.7798C18.0769 14.7689 16.7363 8.06502 13.7195 5.04823C12.379 3.70717 8.52406 0.857716 4.33402 5.04823C0.143985 9.23779 2.99344 13.0927 4.33402 14.4337C7.35081 17.4505 14.0547 18.7911 16.066 16.7802V16.7798Z" fill="white" stroke="white" stroke-width="2.54722" stroke-linecap="round" stroke-linejoin="round"/>
<path d="M19.6816 20.1581L16.3633 16.8398" stroke="white" stroke-width="2.54722"/>
<path d="M19.4118 18.8788C18.949 19.3416 18.949 20.092 19.4118 20.5548C19.8746 21.0176 20.625 21.0176 21.0878 20.5548C21.5506 20.092 21.5506 19.3416 21.0878 18.8788C20.625 18.416 19.8746 18.416 19.4118 18.8788Z" fill="white"/>
<path d="M18.4001 19.8856C17.9373 20.3485 17.9373 21.0988 18.4001 21.5616C18.8629 22.0244 19.6133 22.0244 20.0761 21.5616C20.5389 21.0988 20.5389 20.3485 20.0761 19.8856C19.6133 19.4228 18.8629 19.4228 18.4001 19.8856Z" fill="white"/>
<path d="M8.30355 10.2028C8.82716 10.2028 9.25163 9.77833 9.25163 9.25472C9.25163 8.73111 8.82716 8.30664 8.30355 8.30664C7.77994 8.30664 7.35547 8.73111 7.35547 9.25472C7.35547 9.77833 7.77994 10.2028 8.30355 10.2028Z" fill="black"/>
<path d="M5.93636 11.6257C6.45997 11.6257 6.88444 11.2012 6.88444 10.6776C6.88444 10.154 6.45997 9.72949 5.93636 9.72949C5.41275 9.72949 4.98828 10.154 4.98828 10.6776C4.98828 11.2012 5.41275 11.6257 5.93636 11.6257Z" fill="black"/>
<path d="M8.30355 13.0466C8.82716 13.0466 9.25163 12.6221 9.25163 12.0985C9.25163 11.5749 8.82716 11.1504 8.30355 11.1504C7.77994 11.1504 7.35547 11.5749 7.35547 12.0985C7.35547 12.6221 7.77994 13.0466 8.30355 13.0466Z" fill="black"/>
</mask>
<g mask="url(#mask0_979_630)">
<path d="M0.25 0.724609H23.0039V23.4785H0.25V0.724609Z" fill="#223DBB"/>
</g>
</svg>
