<svg width="104" height="109" viewBox="0 0 104 109" fill="none" xmlns="http://www.w3.org/2000/svg">
<ellipse cx="51.7734" cy="54.7644" rx="51.4688" ry="53.8289" fill="#223DBB"/>
<ellipse cx="51.7956" cy="54.7424" rx="42.4284" ry="44.3739" fill="white"/>
<path d="M15.9197 44.0937H14.6616V43.6376H17.6968V44.0937H16.4387V47.3071H15.9197V44.0937ZM19.0977 47.3386C18.8216 47.3386 18.5735 47.2774 18.3533 47.1551C18.1331 47.0328 17.9601 46.865 17.8343 46.6519C17.712 46.4352 17.6508 46.1905 17.6508 45.9179C17.6508 45.6454 17.712 45.4025 17.8343 45.1893C17.9601 44.9726 18.1331 44.8049 18.3533 44.686C18.5735 44.5637 18.8216 44.5026 19.0977 44.5026C19.3738 44.5026 19.6201 44.5637 19.8368 44.686C20.057 44.8049 20.2282 44.9726 20.3506 45.1893C20.4764 45.4025 20.5393 45.6454 20.5393 45.9179C20.5393 46.1905 20.4764 46.4352 20.3506 46.6519C20.2282 46.865 20.057 47.0328 19.8368 47.1551C19.6201 47.2774 19.3738 47.3386 19.0977 47.3386ZM19.0977 46.8982C19.2759 46.8982 19.4349 46.858 19.5747 46.7777C19.718 46.6938 19.8298 46.5785 19.9102 46.4317C19.9906 46.2814 20.0308 46.1102 20.0308 45.9179C20.0308 45.7257 19.9906 45.5562 19.9102 45.4095C19.8298 45.2592 19.718 45.1439 19.5747 45.0635C19.4349 44.9831 19.2759 44.9429 19.0977 44.9429C18.9194 44.9429 18.7587 44.9831 18.6154 45.0635C18.4756 45.1439 18.3638 45.2592 18.2799 45.4095C18.1995 45.5562 18.1593 45.7257 18.1593 45.9179C18.1593 46.1102 18.1995 46.2814 18.2799 46.4317C18.3638 46.5785 18.4756 46.6938 18.6154 46.7777C18.7587 46.858 18.9194 46.8982 19.0977 46.8982ZM22.7974 47.1446C22.724 47.2075 22.6332 47.2565 22.5248 47.2914C22.4165 47.3229 22.3047 47.3386 22.1893 47.3386C21.9098 47.3386 21.6931 47.2634 21.5393 47.1132C21.3855 46.9629 21.3086 46.748 21.3086 46.4684V44.9429H20.8369V44.5288H21.3086V43.9207H21.8119V44.5288H22.6087V44.9429H21.8119V46.4474C21.8119 46.5977 21.8486 46.713 21.922 46.7934C21.9989 46.8738 22.1072 46.914 22.247 46.914C22.4008 46.914 22.5318 46.8703 22.6402 46.7829L22.7974 47.1446ZM24.4176 44.5026C24.802 44.5026 25.0956 44.5969 25.2983 44.7856C25.5045 44.9744 25.6076 45.2557 25.6076 45.6296V47.3071H25.1305V46.9402C25.0467 47.0695 24.9261 47.1691 24.7688 47.239C24.615 47.3054 24.4316 47.3386 24.2184 47.3386C23.9074 47.3386 23.6575 47.2634 23.4688 47.1132C23.2835 46.9629 23.1909 46.7654 23.1909 46.5208C23.1909 46.2762 23.28 46.0805 23.4583 45.9337C23.6365 45.7834 23.9196 45.7083 24.3075 45.7083H25.1043V45.6087C25.1043 45.392 25.0414 45.226 24.9156 45.1107C24.7898 44.9953 24.6046 44.9377 24.3599 44.9377C24.1957 44.9377 24.0349 44.9656 23.8776 45.0215C23.7204 45.074 23.5876 45.1456 23.4792 45.2365L23.2696 44.859C23.4128 44.7437 23.5841 44.6563 23.7833 44.5969C23.9825 44.534 24.1939 44.5026 24.4176 44.5026ZM24.3023 46.9507C24.4945 46.9507 24.6605 46.9087 24.8003 46.8248C24.9401 46.7375 25.0414 46.6152 25.1043 46.4579V46.07H24.3285C23.9021 46.07 23.6889 46.2133 23.6889 46.4998C23.6889 46.6396 23.7431 46.7497 23.8514 46.8301C23.9598 46.9105 24.1101 46.9507 24.3023 46.9507ZM26.5389 43.4174H27.0421V47.3071H26.5389V43.4174ZM29.4842 43.6376H30.0084V47.3071H29.4842V43.6376ZM32.5172 44.5026C32.8702 44.5026 33.1497 44.6057 33.3559 44.8118C33.5656 45.0145 33.6705 45.3133 33.6705 45.7083V47.3071H33.1672V45.7659C33.1672 45.4968 33.1026 45.2941 32.9733 45.1578C32.8439 45.0215 32.6587 44.9534 32.4176 44.9534C32.145 44.9534 31.9301 45.0338 31.7728 45.1945C31.6155 45.3518 31.5369 45.579 31.5369 45.876V47.3071H31.0336V44.5288H31.5159V44.9481C31.6173 44.8049 31.7536 44.6948 31.9248 44.6179C32.0996 44.541 32.297 44.5026 32.5172 44.5026ZM36.164 47.1446C36.0906 47.2075 35.9997 47.2565 35.8914 47.2914C35.7831 47.3229 35.6712 47.3386 35.5559 47.3386C35.2763 47.3386 35.0596 47.2634 34.9059 47.1132C34.7521 46.9629 34.6752 46.748 34.6752 46.4684V44.9429H34.2034V44.5288H34.6752V43.9207H35.1785V44.5288H35.9753V44.9429H35.1785V46.4474C35.1785 46.5977 35.2152 46.713 35.2885 46.7934C35.3654 46.8738 35.4738 46.914 35.6136 46.914C35.7673 46.914 35.8984 46.8703 36.0067 46.7829L36.164 47.1446ZM39.1913 45.9337C39.1913 45.9721 39.1878 46.0228 39.1808 46.0857H36.9266C36.9581 46.3303 37.0647 46.5278 37.2464 46.6781C37.4316 46.8248 37.6605 46.8982 37.9331 46.8982C38.2651 46.8982 38.5325 46.7864 38.7352 46.5627L39.013 46.8878C38.8872 47.0345 38.73 47.1464 38.5412 47.2233C38.356 47.3001 38.1481 47.3386 37.9174 47.3386C37.6239 47.3386 37.3635 47.2792 37.1363 47.1603C36.9092 47.038 36.7327 46.8685 36.6069 46.6519C36.4846 46.4352 36.4234 46.1905 36.4234 45.9179C36.4234 45.6488 36.4828 45.406 36.6016 45.1893C36.7239 44.9726 36.8899 44.8049 37.0996 44.686C37.3128 44.5637 37.5522 44.5026 37.8178 44.5026C38.0834 44.5026 38.3193 44.5637 38.5255 44.686C38.7352 44.8049 38.8977 44.9726 39.013 45.1893C39.1319 45.406 39.1913 45.6541 39.1913 45.9337ZM37.8178 44.9272C37.5767 44.9272 37.374 45.0006 37.2097 45.1473C37.049 45.2941 36.9546 45.4863 36.9266 45.724H38.709C38.681 45.4898 38.5849 45.2994 38.4207 45.1526C38.2599 45.0023 38.059 44.9272 37.8178 44.9272ZM40.3724 44.9953C40.4597 44.8346 40.589 44.7122 40.7603 44.6284C40.9315 44.5445 41.1395 44.5026 41.3841 44.5026V44.9901C41.3561 44.9866 41.3177 44.9848 41.2688 44.9848C40.9962 44.9848 40.7812 45.067 40.624 45.2312C40.4702 45.392 40.3933 45.6226 40.3933 45.9232V47.3071H39.8901V44.5288H40.3724V44.9953ZM44.4898 45.9337C44.4898 45.9721 44.4863 46.0228 44.4793 46.0857H42.2251C42.2566 46.3303 42.3632 46.5278 42.5449 46.6781C42.7301 46.8248 42.9591 46.8982 43.2316 46.8982C43.5636 46.8982 43.831 46.7864 44.0337 46.5627L44.3115 46.8878C44.1857 47.0345 44.0285 47.1464 43.8397 47.2233C43.6545 47.3001 43.4466 47.3386 43.2159 47.3386C42.9224 47.3386 42.662 47.2792 42.4348 47.1603C42.2077 47.038 42.0312 46.8685 41.9054 46.6519C41.7831 46.4352 41.7219 46.1905 41.7219 45.9179C41.7219 45.6488 41.7813 45.406 41.9001 45.1893C42.0224 44.9726 42.1884 44.8049 42.3981 44.686C42.6113 44.5637 42.8507 44.5026 43.1163 44.5026C43.3819 44.5026 43.6178 44.5637 43.824 44.686C44.0337 44.8049 44.1962 44.9726 44.3115 45.1893C44.4304 45.406 44.4898 45.6541 44.4898 45.9337ZM43.1163 44.9272C42.8752 44.9272 42.6725 45.0006 42.5082 45.1473C42.3475 45.2941 42.2531 45.4863 42.2251 45.724H44.0075C43.9795 45.4898 43.8834 45.2994 43.7192 45.1526C43.5584 45.0023 43.3575 44.9272 43.1163 44.9272ZM45.9854 47.3386C45.7582 47.3386 45.5398 47.3089 45.3301 47.2495C45.1204 47.1866 44.9562 47.1079 44.8374 47.0136L45.047 46.6152C45.1694 46.7025 45.3179 46.7724 45.4926 46.8248C45.6674 46.8773 45.8439 46.9035 46.0221 46.9035C46.4624 46.9035 46.6826 46.7777 46.6826 46.526C46.6826 46.4422 46.6529 46.3758 46.5935 46.3268C46.5341 46.2779 46.4589 46.243 46.3681 46.222C46.2807 46.1975 46.1549 46.1713 45.9906 46.1434C45.767 46.1084 45.5835 46.0682 45.4402 46.0228C45.3004 45.9774 45.1798 45.9005 45.0785 45.7921C44.9771 45.6838 44.9265 45.5318 44.9265 45.3361C44.9265 45.0844 45.0313 44.8835 45.241 44.7332C45.4507 44.5794 45.732 44.5026 46.085 44.5026C46.2702 44.5026 46.4554 44.5253 46.6407 44.5707C46.8259 44.6161 46.9779 44.6773 47.0967 44.7542L46.8818 45.1526C46.6546 45.0058 46.3873 44.9324 46.0797 44.9324C45.8666 44.9324 45.7041 44.9674 45.5922 45.0373C45.4804 45.1072 45.4245 45.1998 45.4245 45.3151C45.4245 45.406 45.4559 45.4776 45.5188 45.53C45.5817 45.5824 45.6586 45.6209 45.7495 45.6454C45.8439 45.6698 45.9749 45.6978 46.1427 45.7292C46.3663 45.7677 46.5463 45.8096 46.6826 45.855C46.8224 45.897 46.9412 45.9704 47.0391 46.0752C47.1369 46.1801 47.1859 46.3268 47.1859 46.5156C47.1859 46.7672 47.0775 46.9681 46.8608 47.1184C46.6477 47.2652 46.3558 47.3386 45.9854 47.3386ZM49.377 47.1446C49.3036 47.2075 49.2127 47.2565 49.1044 47.2914C48.996 47.3229 48.8842 47.3386 48.7689 47.3386C48.4893 47.3386 48.2726 47.2634 48.1188 47.1132C47.9651 46.9629 47.8882 46.748 47.8882 46.4684V44.9429H47.4164V44.5288H47.8882V43.9207H48.3914V44.5288H49.1882V44.9429H48.3914V46.4474C48.3914 46.5977 48.4281 46.713 48.5015 46.7934C48.5784 46.8738 48.6867 46.914 48.8265 46.914C48.9803 46.914 49.1114 46.8703 49.2197 46.7829L49.377 47.1446ZM53.8046 46.3897H51.8545L51.4509 47.3071H50.9109L52.5727 43.6376H53.0917L54.7587 47.3071H54.2083L53.8046 46.3897ZM53.6211 45.9704L52.8296 44.1723L52.038 45.9704H53.6211ZM56.418 47.3386C56.135 47.3386 55.8816 47.2774 55.6579 47.1551C55.4378 47.0328 55.2648 46.865 55.1389 46.6519C55.0131 46.4352 54.9502 46.1905 54.9502 45.9179C54.9502 45.6454 55.0131 45.4025 55.1389 45.1893C55.2648 44.9726 55.4378 44.8049 55.6579 44.686C55.8816 44.5637 56.135 44.5026 56.418 44.5026C56.6697 44.5026 56.8933 44.5532 57.089 44.6546C57.2882 44.7559 57.442 44.9027 57.5504 45.0949L57.1677 45.3413C57.0803 45.2085 56.972 45.1089 56.8427 45.0425C56.7134 44.9761 56.5701 44.9429 56.4128 44.9429C56.2311 44.9429 56.0668 44.9831 55.92 45.0635C55.7767 45.1439 55.6632 45.2592 55.5793 45.4095C55.4989 45.5562 55.4587 45.7257 55.4587 45.9179C55.4587 46.1137 55.4989 46.2866 55.5793 46.4369C55.6632 46.5837 55.7767 46.6973 55.92 46.7777C56.0668 46.858 56.2311 46.8982 56.4128 46.8982C56.5701 46.8982 56.7134 46.865 56.8427 46.7986C56.972 46.7322 57.0803 46.6326 57.1677 46.4998L57.5504 46.741C57.442 46.9332 57.2882 47.0817 57.089 47.1866C56.8933 47.2879 56.6697 47.3386 56.418 47.3386ZM59.3719 47.3386C59.0888 47.3386 58.8354 47.2774 58.6118 47.1551C58.3916 47.0328 58.2186 46.865 58.0928 46.6519C57.967 46.4352 57.9041 46.1905 57.9041 45.9179C57.9041 45.6454 57.967 45.4025 58.0928 45.1893C58.2186 44.9726 58.3916 44.8049 58.6118 44.686C58.8354 44.5637 59.0888 44.5026 59.3719 44.5026C59.6235 44.5026 59.8472 44.5532 60.0429 44.6546C60.2421 44.7559 60.3959 44.9027 60.5042 45.0949L60.1215 45.3413C60.0342 45.2085 59.9258 45.1089 59.7965 45.0425C59.6672 44.9761 59.5239 44.9429 59.3666 44.9429C59.1849 44.9429 59.0207 44.9831 58.8739 45.0635C58.7306 45.1439 58.617 45.2592 58.5331 45.4095C58.4528 45.5562 58.4126 45.7257 58.4126 45.9179C58.4126 46.1137 58.4528 46.2866 58.5331 46.4369C58.617 46.5837 58.7306 46.6973 58.8739 46.7777C59.0207 46.858 59.1849 46.8982 59.3666 46.8982C59.5239 46.8982 59.6672 46.865 59.7965 46.7986C59.9258 46.7322 60.0342 46.6326 60.1215 46.4998L60.5042 46.741C60.3959 46.9332 60.2421 47.0817 60.0429 47.1866C59.8472 47.2879 59.6235 47.3386 59.3719 47.3386ZM63.7454 44.5288V47.3071H63.2684V46.8878C63.167 47.031 63.0325 47.1429 62.8647 47.2233C62.7004 47.3001 62.5205 47.3386 62.3248 47.3386C61.9543 47.3386 61.6625 47.2372 61.4493 47.0345C61.2361 46.8283 61.1295 46.526 61.1295 46.1276V44.5288H61.6328V46.07C61.6328 46.3391 61.6974 46.5435 61.8268 46.6833C61.9561 46.8196 62.1413 46.8878 62.3824 46.8878C62.648 46.8878 62.8577 46.8074 63.0115 46.6466C63.1653 46.4859 63.2421 46.2587 63.2421 45.9651V44.5288H63.7454ZM68.179 44.5026C68.5285 44.5026 68.8046 44.6039 69.0073 44.8066C69.2135 45.0093 69.3166 45.3099 69.3166 45.7083V47.3071H68.8133V45.7659C68.8133 45.4968 68.7504 45.2941 68.6246 45.1578C68.5023 45.0215 68.3258 44.9534 68.0951 44.9534C67.84 44.9534 67.6373 45.0338 67.487 45.1945C67.3368 45.3518 67.2616 45.579 67.2616 45.876V47.3071H66.7584V45.7659C66.7584 45.4968 66.6955 45.2941 66.5697 45.1578C66.4473 45.0215 66.2709 44.9534 66.0402 44.9534C65.7851 44.9534 65.5824 45.0338 65.4321 45.1945C65.2818 45.3518 65.2067 45.579 65.2067 45.876V47.3071H64.7034V44.5288H65.1857V44.9429C65.2871 44.7996 65.4199 44.6913 65.5841 44.6179C65.7484 44.541 65.9354 44.5026 66.145 44.5026C66.3617 44.5026 66.5539 44.5462 66.7217 44.6336C66.8894 44.721 67.0187 44.8485 67.1096 45.0163C67.2144 44.8555 67.3595 44.7297 67.5447 44.6389C67.7334 44.548 67.9449 44.5026 68.179 44.5026ZM72.8322 44.5288V47.3071H72.3552V46.8878C72.2538 47.031 72.1193 47.1429 71.9515 47.2233C71.7873 47.3001 71.6073 47.3386 71.4116 47.3386C71.0411 47.3386 70.7493 47.2372 70.5361 47.0345C70.3229 46.8283 70.2163 46.526 70.2163 46.1276V44.5288H70.7196V46.07C70.7196 46.3391 70.7842 46.5435 70.9136 46.6833C71.0429 46.8196 71.2281 46.8878 71.4692 46.8878C71.7348 46.8878 71.9445 46.8074 72.0983 46.6466C72.2521 46.4859 72.3289 46.2587 72.3289 45.9651V44.5288H72.8322ZM73.7902 43.4174H74.2935V47.3071H73.7902V43.4174ZM76.2661 44.5026C76.6505 44.5026 76.9441 44.5969 77.1468 44.7856C77.353 44.9744 77.4561 45.2557 77.4561 45.6296V47.3071H76.9791V46.9402C76.8952 47.0695 76.7746 47.1691 76.6173 47.239C76.4636 47.3054 76.2801 47.3386 76.0669 47.3386C75.7559 47.3386 75.506 47.2634 75.3173 47.1132C75.1321 46.9629 75.0394 46.7654 75.0394 46.5208C75.0394 46.2762 75.1286 46.0805 75.3068 45.9337C75.485 45.7834 75.7681 45.7083 76.156 45.7083H76.9528V45.6087C76.9528 45.392 76.8899 45.226 76.7641 45.1107C76.6383 44.9953 76.4531 44.9377 76.2084 44.9377C76.0442 44.9377 75.8834 44.9656 75.7262 45.0215C75.5689 45.074 75.4361 45.1456 75.3278 45.2365L75.1181 44.859C75.2614 44.7437 75.4326 44.6563 75.6318 44.5969C75.831 44.534 76.0424 44.5026 76.2661 44.5026ZM76.1508 46.9507C76.343 46.9507 76.509 46.9087 76.6488 46.8248C76.7886 46.7375 76.8899 46.6152 76.9528 46.4579V46.07H76.177C75.7506 46.07 75.5374 46.2133 75.5374 46.4998C75.5374 46.6396 75.5916 46.7497 75.7 46.8301C75.8083 46.9105 75.9586 46.9507 76.1508 46.9507ZM79.9496 47.1446C79.8762 47.2075 79.7853 47.2565 79.677 47.2914C79.5686 47.3229 79.4568 47.3386 79.3415 47.3386C79.0619 47.3386 78.8452 47.2634 78.6914 47.1132C78.5377 46.9629 78.4608 46.748 78.4608 46.4684V44.9429H77.989V44.5288H78.4608V43.9207H78.964V44.5288H79.7609V44.9429H78.964V46.4474C78.964 46.5977 79.0007 46.713 79.0741 46.7934C79.151 46.8738 79.2593 46.914 79.3991 46.914C79.5529 46.914 79.684 46.8703 79.7923 46.7829L79.9496 47.1446ZM82.9769 45.9337C82.9769 45.9721 82.9734 46.0228 82.9664 46.0857H80.7122C80.7437 46.3303 80.8503 46.5278 81.032 46.6781C81.2172 46.8248 81.4461 46.8982 81.7187 46.8982C82.0507 46.8982 82.3181 46.7864 82.5208 46.5627L82.7986 46.8878C82.6728 47.0345 82.5155 47.1464 82.3268 47.2233C82.1416 47.3001 81.9337 47.3386 81.703 47.3386C81.4094 47.3386 81.1491 47.2792 80.9219 47.1603C80.6948 47.038 80.5183 46.8685 80.3925 46.6519C80.2701 46.4352 80.209 46.1905 80.209 45.9179C80.209 45.6488 80.2684 45.406 80.3872 45.1893C80.5095 44.9726 80.6755 44.8049 80.8852 44.686C81.0984 44.5637 81.3378 44.5026 81.6034 44.5026C81.869 44.5026 82.1049 44.5637 82.3111 44.686C82.5208 44.8049 82.6833 44.9726 82.7986 45.1893C82.9174 45.406 82.9769 45.6541 82.9769 45.9337ZM81.6034 44.9272C81.3623 44.9272 81.1596 45.0006 80.9953 45.1473C80.8345 45.2941 80.7402 45.4863 80.7122 45.724H82.4946C82.4666 45.4898 82.3705 45.2994 82.2063 45.1526C82.0455 45.0023 81.8445 44.9272 81.6034 44.9272ZM86.2968 43.4174V47.3071H85.8145V46.8668C85.7026 47.0206 85.5611 47.1376 85.3899 47.218C85.2186 47.2984 85.0299 47.3386 84.8237 47.3386C84.5546 47.3386 84.3135 47.2792 84.1003 47.1603C83.8871 47.0415 83.7193 46.8755 83.597 46.6623C83.4782 46.4457 83.4188 46.1975 83.4188 45.9179C83.4188 45.6384 83.4782 45.392 83.597 45.1788C83.7193 44.9656 83.8871 44.7996 84.1003 44.6808C84.3135 44.562 84.5546 44.5026 84.8237 44.5026C85.0229 44.5026 85.2064 44.541 85.3741 44.6179C85.5419 44.6913 85.6817 44.8014 85.7935 44.9481V43.4174H86.2968ZM84.8656 46.8982C85.0404 46.8982 85.1994 46.858 85.3427 46.7777C85.486 46.6938 85.5978 46.5785 85.6782 46.4317C85.7586 46.2814 85.7987 46.1102 85.7987 45.9179C85.7987 45.7257 85.7586 45.5562 85.6782 45.4095C85.5978 45.2592 85.486 45.1439 85.3427 45.0635C85.1994 44.9831 85.0404 44.9429 84.8656 44.9429C84.6874 44.9429 84.5266 44.9831 84.3834 45.0635C84.2436 45.1439 84.1317 45.2592 84.0479 45.4095C83.9675 45.5562 83.9273 45.7257 83.9273 45.9179C83.9273 46.1102 83.9675 46.2814 84.0479 46.4317C84.1317 46.5785 84.2436 46.6938 84.3834 46.7777C84.5266 46.858 84.6874 46.8982 84.8656 46.8982Z" fill="black"/>
<path d="M34.0838 56.0949H35.0274V56.731H34.0069L33.8601 57.9192H33.2241L33.3709 56.731H32.1896L32.0428 57.9192H31.4068L31.5536 56.731H30.61V56.0949H31.6305L31.7912 54.8508H30.8476V54.2147H31.8681L32.0149 53.0265H32.6509L32.5042 54.2147H33.6784L33.8252 53.0265H34.4612L34.3145 54.2147H35.2511L35.2581 54.8508H34.2376L34.0838 56.0949ZM33.4478 56.0949L33.6015 54.8508H32.4273L32.2665 56.0949H33.4478ZM39.2696 57.1503V57.9192H35.663V57.3111L37.6061 55.4658C37.8251 55.2562 37.9719 55.0744 38.0465 54.9207C38.1257 54.7622 38.1653 54.6061 38.1653 54.4524C38.1653 54.224 38.0884 54.0493 37.9346 53.9281C37.7809 53.807 37.5549 53.7464 37.2566 53.7464C36.758 53.7464 36.3759 53.9165 36.1103 54.2566L35.4743 53.7674C35.6653 53.5111 35.9216 53.3131 36.2431 53.1733C36.5693 53.0288 36.9328 52.9566 37.3335 52.9566C37.8647 52.9566 38.2888 53.0824 38.6056 53.334C38.9225 53.5856 39.0809 53.9281 39.0809 54.3615C39.0809 54.6271 39.025 54.8764 38.9132 55.1094C38.8013 55.3424 38.587 55.608 38.2701 55.9062L36.9631 57.1503H39.2696ZM41.3248 54.9207C42.0144 54.9207 42.5247 55.0558 42.8555 55.3261C43.1864 55.5917 43.3518 55.9551 43.3518 56.4164C43.3518 56.71 43.2795 56.9756 43.1351 57.2132C42.9906 57.4509 42.774 57.6396 42.4851 57.7794C42.1962 57.9192 41.8397 57.9891 41.4157 57.9891C41.0662 57.9891 40.7283 57.9402 40.4022 57.8423C40.076 57.7398 39.8011 57.6 39.5774 57.4229L39.9618 56.717C40.1436 56.8661 40.3602 56.9849 40.6119 57.0734C40.8681 57.1573 41.1314 57.1993 41.4017 57.1993C41.7232 57.1993 41.9748 57.134 42.1566 57.0036C42.3429 56.8684 42.4361 56.6844 42.4361 56.4514C42.4361 56.1998 42.336 56.011 42.1356 55.8852C41.9399 55.7547 41.602 55.6895 41.1221 55.6895H39.9409L40.1925 53.0265H43.0652V53.7883H40.9613L40.8565 54.9207H41.3248ZM45.9168 57.9891C45.5254 57.9891 45.1759 57.8912 44.8684 57.6955C44.5609 57.4952 44.3186 57.2063 44.1415 56.8288C43.9644 56.4467 43.8759 55.9947 43.8759 55.4728C43.8759 54.9509 43.9644 54.5013 44.1415 54.1238C44.3186 53.7417 44.5609 53.4528 44.8684 53.2571C45.1759 53.0568 45.5254 52.9566 45.9168 52.9566C46.3083 52.9566 46.6577 53.0568 46.9653 53.2571C47.2775 53.4528 47.5221 53.7417 47.6992 54.1238C47.8763 54.5013 47.9648 54.9509 47.9648 55.4728C47.9648 55.9947 47.8763 56.4467 47.6992 56.8288C47.5221 57.2063 47.2775 57.4952 46.9653 57.6955C46.6577 57.8912 46.3083 57.9891 45.9168 57.9891ZM45.9168 57.1993C46.2663 57.1993 46.5412 57.0548 46.7416 56.7659C46.9466 56.477 47.0492 56.046 47.0492 55.4728C47.0492 54.8997 46.9466 54.4687 46.7416 54.1798C46.5412 53.8909 46.2663 53.7464 45.9168 53.7464C45.572 53.7464 45.2971 53.8909 45.0921 54.1798C44.8917 54.4687 44.7915 54.8997 44.7915 55.4728C44.7915 56.046 44.8917 56.477 45.0921 56.7659C45.2971 57.0548 45.572 57.1993 45.9168 57.1993ZM49.0491 56.8078C49.2122 56.8078 49.3473 56.8614 49.4545 56.9686C49.5617 57.0758 49.6153 57.2156 49.6153 57.388C49.6153 57.4625 49.6036 57.5418 49.5803 57.6256C49.5617 57.7048 49.5197 57.826 49.4545 57.9891L49.098 58.9746H48.5319L48.8115 57.9052C48.7089 57.8633 48.6274 57.798 48.5668 57.7095C48.5109 57.6163 48.4829 57.5091 48.4829 57.388C48.4829 57.2156 48.5365 57.0758 48.6437 56.9686C48.7509 56.8614 48.886 56.8078 49.0491 56.8078ZM52.1624 57.9891C51.771 57.9891 51.4215 57.8912 51.114 57.6955C50.8064 57.4952 50.5641 57.2063 50.3871 56.8288C50.21 56.4467 50.1215 55.9947 50.1215 55.4728C50.1215 54.9509 50.21 54.5013 50.3871 54.1238C50.5641 53.7417 50.8064 53.4528 51.114 53.2571C51.4215 53.0568 51.771 52.9566 52.1624 52.9566C52.5538 52.9566 52.9033 53.0568 53.2109 53.2571C53.5231 53.4528 53.7677 53.7417 53.9448 54.1238C54.1218 54.5013 54.2104 54.9509 54.2104 55.4728C54.2104 55.9947 54.1218 56.4467 53.9448 56.8288C53.7677 57.2063 53.5231 57.4952 53.2109 57.6955C52.9033 57.8912 52.5538 57.9891 52.1624 57.9891ZM52.1624 57.1993C52.5119 57.1993 52.7868 57.0548 52.9872 56.7659C53.1922 56.477 53.2947 56.046 53.2947 55.4728C53.2947 54.8997 53.1922 54.4687 52.9872 54.1798C52.7868 53.8909 52.5119 53.7464 52.1624 53.7464C51.8176 53.7464 51.5427 53.8909 51.3376 54.1798C51.1373 54.4687 51.0371 54.8997 51.0371 55.4728C51.0371 56.046 51.1373 56.477 51.3376 56.7659C51.5427 57.0548 51.8176 57.1993 52.1624 57.1993ZM56.8654 57.9891C56.474 57.9891 56.1245 57.8912 55.8169 57.6955C55.5094 57.4952 55.2671 57.2063 55.09 56.8288C54.9129 56.4467 54.8244 55.9947 54.8244 55.4728C54.8244 54.9509 54.9129 54.5013 55.09 54.1238C55.2671 53.7417 55.5094 53.4528 55.8169 53.2571C56.1245 53.0568 56.474 52.9566 56.8654 52.9566C57.2568 52.9566 57.6063 53.0568 57.9138 53.2571C58.226 53.4528 58.4706 53.7417 58.6477 54.1238C58.8248 54.5013 58.9133 54.9509 58.9133 55.4728C58.9133 55.9947 58.8248 56.4467 58.6477 56.8288C58.4706 57.2063 58.226 57.4952 57.9138 57.6955C57.6063 57.8912 57.2568 57.9891 56.8654 57.9891ZM56.8654 57.1993C57.2148 57.1993 57.4898 57.0548 57.6901 56.7659C57.8952 56.477 57.9977 56.046 57.9977 55.4728C57.9977 54.8997 57.8952 54.4687 57.6901 54.1798C57.4898 53.8909 57.2148 53.7464 56.8654 53.7464C56.5205 53.7464 56.2456 53.8909 56.0406 54.1798C55.8402 54.4687 55.74 54.8997 55.74 55.4728C55.74 56.046 55.8402 56.477 56.0406 56.7659C56.2456 57.0548 56.5205 57.1993 56.8654 57.1993ZM61.5683 57.9891C61.1769 57.9891 60.8274 57.8912 60.5199 57.6955C60.2123 57.4952 59.97 57.2063 59.793 56.8288C59.6159 56.4467 59.5274 55.9947 59.5274 55.4728C59.5274 54.9509 59.6159 54.5013 59.793 54.1238C59.97 53.7417 60.2123 53.4528 60.5199 53.2571C60.8274 53.0568 61.1769 52.9566 61.5683 52.9566C61.9597 52.9566 62.3092 53.0568 62.6168 53.2571C62.929 53.4528 63.1736 53.7417 63.3507 54.1238C63.5277 54.5013 63.6163 54.9509 63.6163 55.4728C63.6163 55.9947 63.5277 56.4467 63.3507 56.8288C63.1736 57.2063 62.929 57.4952 62.6168 57.6955C62.3092 57.8912 61.9597 57.9891 61.5683 57.9891ZM61.5683 57.1993C61.9178 57.1993 62.1927 57.0548 62.3931 56.7659C62.5981 56.477 62.7006 56.046 62.7006 55.4728C62.7006 54.8997 62.5981 54.4687 62.3931 54.1798C62.1927 53.8909 61.9178 53.7464 61.5683 53.7464C61.2235 53.7464 60.9486 53.8909 60.7435 54.1798C60.5432 54.4687 60.443 54.8997 60.443 55.4728C60.443 56.046 60.5432 56.477 60.7435 56.7659C60.9486 57.0548 61.2235 57.1993 61.5683 57.1993ZM64.6936 57.9681C64.5352 57.9681 64.4 57.9145 64.2882 57.8074C64.1764 57.6955 64.1204 57.5557 64.1204 57.388C64.1204 57.2156 64.174 57.0758 64.2812 56.9686C64.393 56.8614 64.5305 56.8078 64.6936 56.8078C64.8567 56.8078 64.9918 56.8614 65.099 56.9686C65.2108 57.0758 65.2667 57.2156 65.2667 57.388C65.2667 57.5557 65.2108 57.6955 65.099 57.8074C64.9872 57.9145 64.852 57.9681 64.6936 57.9681ZM67.8139 57.9891C67.4225 57.9891 67.073 57.8912 66.7655 57.6955C66.4579 57.4952 66.2156 57.2063 66.0385 56.8288C65.8615 56.4467 65.7729 55.9947 65.7729 55.4728C65.7729 54.9509 65.8615 54.5013 66.0385 54.1238C66.2156 53.7417 66.4579 53.4528 66.7655 53.2571C67.073 53.0568 67.4225 52.9566 67.8139 52.9566C68.2053 52.9566 68.5548 53.0568 68.8623 53.2571C69.1745 53.4528 69.4192 53.7417 69.5962 54.1238C69.7733 54.5013 69.8618 54.9509 69.8618 55.4728C69.8618 55.9947 69.7733 56.4467 69.5962 56.8288C69.4192 57.2063 69.1745 57.4952 68.8623 57.6955C68.5548 57.8912 68.2053 57.9891 67.8139 57.9891ZM67.8139 57.1993C68.1634 57.1993 68.4383 57.0548 68.6387 56.7659C68.8437 56.477 68.9462 56.046 68.9462 55.4728C68.9462 54.8997 68.8437 54.4687 68.6387 54.1798C68.4383 53.8909 68.1634 53.7464 67.8139 53.7464C67.4691 53.7464 67.1942 53.8909 66.9891 54.1798C66.7888 54.4687 66.6886 54.8997 66.6886 55.4728C66.6886 56.046 66.7888 56.477 66.9891 56.7659C67.1942 57.0548 67.4691 57.1993 67.8139 57.1993ZM72.5168 57.9891C72.1254 57.9891 71.776 57.8912 71.4684 57.6955C71.1609 57.4952 70.9186 57.2063 70.7415 56.8288C70.5644 56.4467 70.4759 55.9947 70.4759 55.4728C70.4759 54.9509 70.5644 54.5013 70.7415 54.1238C70.9186 53.7417 71.1609 53.4528 71.4684 53.2571C71.776 53.0568 72.1254 52.9566 72.5168 52.9566C72.9083 52.9566 73.2577 53.0568 73.5653 53.2571C73.8775 53.4528 74.1221 53.7417 74.2992 54.1238C74.4763 54.5013 74.5648 54.9509 74.5648 55.4728C74.5648 55.9947 74.4763 56.4467 74.2992 56.8288C74.1221 57.2063 73.8775 57.4952 73.5653 57.6955C73.2577 57.8912 72.9083 57.9891 72.5168 57.9891ZM72.5168 57.1993C72.8663 57.1993 73.1412 57.0548 73.3416 56.7659C73.5466 56.477 73.6492 56.046 73.6492 55.4728C73.6492 54.8997 73.5466 54.4687 73.3416 54.1798C73.1412 53.8909 72.8663 53.7464 72.5168 53.7464C72.172 53.7464 71.8971 53.8909 71.6921 54.1798C71.4917 54.4687 71.3915 54.8997 71.3915 55.4728C71.3915 56.046 71.4917 56.477 71.6921 56.7659C71.8971 57.0548 72.172 57.1993 72.5168 57.1993Z" fill="#223DBB"/>
<path d="M37.6178 62.2012C37.9297 62.2012 38.169 62.28 38.3356 62.4375C38.5022 62.5919 38.5855 62.8221 38.5855 63.128V64.6091H38.2765V64.2366C38.2038 64.3608 38.0963 64.4577 37.954 64.5274C37.8146 64.597 37.6481 64.6318 37.4542 64.6318C37.1877 64.6318 36.9757 64.5682 36.8182 64.441C36.6607 64.3138 36.5819 64.1457 36.5819 63.9367C36.5819 63.7338 36.6546 63.5702 36.8 63.4461C36.9484 63.3219 37.1831 63.2598 37.5042 63.2598H38.2629V63.1144C38.2629 62.9084 38.2054 62.7525 38.0903 62.6465C37.9752 62.5374 37.8071 62.4829 37.586 62.4829C37.4345 62.4829 37.2891 62.5086 37.1498 62.5601C37.0105 62.6086 36.8908 62.6767 36.7909 62.7646L36.6455 62.5238C36.7667 62.4208 36.9121 62.3421 37.0817 62.2875C37.2513 62.23 37.43 62.2012 37.6178 62.2012ZM37.5042 64.3774C37.6859 64.3774 37.8419 64.3365 37.9721 64.2548C38.1024 64.17 38.1993 64.0488 38.2629 63.8913V63.5006H37.5133C37.1044 63.5006 36.8999 63.6429 36.8999 63.9276C36.8999 64.067 36.9529 64.1775 37.0589 64.2593C37.165 64.3381 37.3134 64.3774 37.5042 64.3774ZM40.7201 64.4637C40.6595 64.5183 40.5838 64.5607 40.4929 64.591C40.4051 64.6182 40.3127 64.6318 40.2158 64.6318C39.9917 64.6318 39.819 64.5713 39.6979 64.4501C39.5767 64.329 39.5161 64.1578 39.5161 63.9367V62.492H39.0891V62.2194H39.5161V61.6969H39.8387V62.2194H40.5656V62.492H39.8387V63.9186C39.8387 64.0609 39.8735 64.17 39.9432 64.2457C40.0159 64.3184 40.1189 64.3547 40.2521 64.3547C40.3188 64.3547 40.3824 64.3441 40.4429 64.3229C40.5065 64.3017 40.5611 64.2714 40.6065 64.232L40.7201 64.4637ZM43.0461 65.4905C42.8765 65.2119 42.7462 64.8923 42.6554 64.5319C42.5645 64.1684 42.5191 63.7792 42.5191 63.3643C42.5191 62.9493 42.5645 62.5601 42.6554 62.1967C42.7462 61.8302 42.8765 61.5106 43.0461 61.2381H43.355C43.1763 61.544 43.0446 61.8726 42.9598 62.2239C42.878 62.5753 42.8371 62.9554 42.8371 63.3643C42.8371 63.7732 42.878 64.1533 42.9598 64.5046C43.0446 64.856 43.1763 65.1846 43.355 65.4905H43.0461ZM45.9497 64.3184V64.6091H43.7189V64.3774L45.041 63.0826C45.2076 62.919 45.3197 62.7782 45.3772 62.6601C45.4378 62.5389 45.4681 62.4178 45.4681 62.2966C45.4681 62.1088 45.403 61.9635 45.2727 61.8605C45.1455 61.7545 44.9623 61.7015 44.723 61.7015C44.3504 61.7015 44.0612 61.8196 43.8552 62.0558L43.6235 61.8559C43.7477 61.7106 43.9052 61.5985 44.096 61.5197C44.2899 61.441 44.5079 61.4016 44.7502 61.4016C45.0743 61.4016 45.3303 61.4788 45.5181 61.6333C45.7089 61.7848 45.8043 61.9937 45.8043 62.2603C45.8043 62.4238 45.7679 62.5813 45.6952 62.7328C45.6225 62.8842 45.4847 63.0584 45.2818 63.2552L44.2005 64.3184H45.9497ZM47.1961 62.7328C47.6565 62.7328 47.9912 62.8161 48.2002 62.9827C48.4122 63.1462 48.5182 63.3764 48.5182 63.6732C48.5182 63.858 48.4743 64.0231 48.3865 64.1684C48.3017 64.3138 48.1729 64.4289 48.0003 64.5137C47.8276 64.5955 47.6156 64.6364 47.3642 64.6364C47.1371 64.6364 46.9205 64.6 46.7146 64.5274C46.5116 64.4516 46.3481 64.3517 46.2239 64.2275L46.3829 63.9685C46.4889 64.0776 46.6282 64.1669 46.8009 64.2366C46.9735 64.3032 47.1598 64.3365 47.3597 64.3365C47.6232 64.3365 47.8261 64.2775 47.9685 64.1594C48.1139 64.0412 48.1866 63.8837 48.1866 63.6869C48.1866 63.4688 48.1048 63.3037 47.9412 63.1916C47.7807 63.0796 47.5081 63.0235 47.1234 63.0235H46.4465L46.6101 61.4289H48.3501V61.7196H46.8963L46.7872 62.7328H47.1961ZM49.5615 63.1326C49.3465 63.1326 49.1723 63.0538 49.0391 62.8963C48.9088 62.7358 48.8437 62.5268 48.8437 62.2694C48.8437 62.0119 48.9088 61.8044 49.0391 61.6469C49.1723 61.4864 49.3465 61.4062 49.5615 61.4062C49.7735 61.4062 49.9462 61.4849 50.0795 61.6424C50.2127 61.7999 50.2794 62.0089 50.2794 62.2694C50.2794 62.5298 50.2127 62.7388 50.0795 62.8963C49.9462 63.0538 49.7735 63.1326 49.5615 63.1326ZM51.4879 61.4289H51.7559L49.5842 64.6091H49.3162L51.4879 61.4289ZM49.5615 62.9281C49.7099 62.9281 49.8281 62.8706 49.9159 62.7555C50.0068 62.6374 50.0522 62.4753 50.0522 62.2694C50.0522 62.0634 50.0068 61.9029 49.9159 61.7878C49.8281 61.6697 49.7099 61.6106 49.5615 61.6106C49.4101 61.6106 49.2904 61.6697 49.2026 61.7878C49.1148 61.9059 49.0709 62.0664 49.0709 62.2694C49.0709 62.4723 49.1148 62.6328 49.2026 62.7509C49.2904 62.8691 49.4101 62.9281 49.5615 62.9281ZM51.5106 64.6318C51.2986 64.6318 51.1259 64.5531 50.9926 64.3956C50.8594 64.2351 50.7927 64.0261 50.7927 63.7686C50.7927 63.5112 50.8594 63.3037 50.9926 63.1462C51.1259 62.9857 51.2986 62.9054 51.5106 62.9054C51.7256 62.9054 51.8983 62.9857 52.0285 63.1462C52.1618 63.3037 52.2284 63.5112 52.2284 63.7686C52.2284 64.0261 52.1618 64.2351 52.0285 64.3956C51.8983 64.5531 51.7256 64.6318 51.5106 64.6318ZM51.5106 64.4274C51.662 64.4274 51.7817 64.3683 51.8695 64.2502C51.9573 64.1321 52.0012 63.9716 52.0012 63.7686C52.0012 63.5657 51.9573 63.4052 51.8695 63.2871C51.7817 63.1689 51.662 63.1099 51.5106 63.1099C51.3622 63.1099 51.2425 63.1689 51.1517 63.2871C51.0638 63.4021 51.0199 63.5627 51.0199 63.7686C51.0199 63.9746 51.0638 64.1366 51.1517 64.2548C51.2425 64.3699 51.3622 64.4274 51.5106 64.4274ZM55.2897 62.2012C55.5139 62.2012 55.7168 62.2527 55.8985 62.3557C56.0802 62.4556 56.2226 62.598 56.3256 62.7828C56.4286 62.9675 56.48 63.178 56.48 63.4143C56.48 63.6535 56.4286 63.8656 56.3256 64.0503C56.2226 64.2351 56.0802 64.3789 55.8985 64.4819C55.7198 64.5819 55.5169 64.6318 55.2897 64.6318C55.0959 64.6318 54.9202 64.5925 54.7627 64.5137C54.6082 64.4319 54.481 64.3138 54.3811 64.1594V65.4905H54.0585V62.2194H54.3674V62.6919C54.4644 62.5344 54.5916 62.4132 54.7491 62.3284C54.9096 62.2436 55.0898 62.2012 55.2897 62.2012ZM55.267 64.3456C55.4336 64.3456 55.585 64.3078 55.7213 64.232C55.8576 64.1533 55.9636 64.0427 56.0394 63.9004C56.1181 63.758 56.1575 63.596 56.1575 63.4143C56.1575 63.2325 56.1181 63.072 56.0394 62.9327C55.9636 62.7903 55.8576 62.6798 55.7213 62.601C55.585 62.5223 55.4336 62.4829 55.267 62.4829C55.0974 62.4829 54.9444 62.5223 54.8081 62.601C54.6749 62.6798 54.5689 62.7903 54.4901 62.9327C54.4144 63.072 54.3765 63.2325 54.3765 63.4143C54.3765 63.596 54.4144 63.758 54.4901 63.9004C54.5689 64.0427 54.6749 64.1533 54.8081 64.232C54.9444 64.3078 55.0974 64.3456 55.267 64.3456ZM57.1029 64.6318C57.0362 64.6318 56.9787 64.6076 56.9302 64.5592C56.8848 64.5107 56.8621 64.4516 56.8621 64.382C56.8621 64.3123 56.8848 64.2548 56.9302 64.2093C56.9787 64.1609 57.0362 64.1366 57.1029 64.1366C57.1695 64.1366 57.227 64.1609 57.2755 64.2093C57.324 64.2548 57.3482 64.3123 57.3482 64.382C57.3482 64.4516 57.324 64.5107 57.2755 64.5592C57.227 64.6076 57.1695 64.6318 57.1029 64.6318ZM58.9142 62.2012C59.2261 62.2012 59.4654 62.28 59.632 62.4375C59.7986 62.5919 59.8819 62.8221 59.8819 63.128V64.6091H59.5729V64.2366C59.5002 64.3608 59.3927 64.4577 59.2504 64.5274C59.111 64.597 58.9444 64.6318 58.7506 64.6318C58.4841 64.6318 58.272 64.5682 58.1145 64.441C57.957 64.3138 57.8783 64.1457 57.8783 63.9367C57.8783 63.7338 57.951 63.5702 58.0964 63.4461C58.2448 63.3219 58.4795 63.2598 58.8006 63.2598H59.5593V63.1144C59.5593 62.9084 59.5017 62.7525 59.3866 62.6465C59.2716 62.5374 59.1035 62.4829 58.8824 62.4829C58.7309 62.4829 58.5855 62.5086 58.4462 62.5601C58.3069 62.6086 58.1872 62.6767 58.0873 62.7646L57.9419 62.5238C58.0631 62.4208 58.2084 62.3421 58.3781 62.2875C58.5477 62.23 58.7264 62.2012 58.9142 62.2012ZM58.8006 64.3774C58.9823 64.3774 59.1383 64.3365 59.2685 64.2548C59.3988 64.17 59.4957 64.0488 59.5593 63.8913V63.5006H58.8097C58.4008 63.5006 58.1963 63.6429 58.1963 63.9276C58.1963 64.067 58.2493 64.1775 58.3553 64.2593C58.4613 64.3381 58.6098 64.3774 58.8006 64.3774ZM60.4899 65.4905C60.6686 65.1846 60.8004 64.8575 60.8852 64.5092C60.97 64.1578 61.0124 63.7762 61.0124 63.3643C61.0124 62.9524 60.97 62.5722 60.8852 62.2239C60.8004 61.8726 60.6686 61.544 60.4899 61.2381H60.7989C60.9685 61.5106 61.0987 61.8302 61.1896 62.1967C61.2835 62.5601 61.3304 62.9493 61.3304 63.3643C61.3304 63.7792 61.285 64.1684 61.1941 64.5319C61.1033 64.8954 60.9715 65.2149 60.7989 65.4905H60.4899Z" fill="black"/>
</svg>
