<svg width="17" height="17" viewBox="0 0 17 17" fill="none" xmlns="http://www.w3.org/2000/svg">
<g clip-path="url(#clip0_979_843)">
<path d="M6.36728 14.6633C6.97787 14.6633 7.47285 14.1683 7.47285 13.5577C7.47285 12.9471 6.97787 12.4521 6.36728 12.4521C5.7567 12.4521 5.26172 12.9471 5.26172 13.5577C5.26172 14.1683 5.7567 14.6633 6.36728 14.6633Z" fill="white"/>
<path d="M12.1134 14.6633C12.724 14.6633 13.2189 14.1683 13.2189 13.5577C13.2189 12.9471 12.724 12.4521 12.1134 12.4521C11.5028 12.4521 11.0078 12.9471 11.0078 13.5577C11.0078 14.1683 11.5028 14.6633 12.1134 14.6633Z" fill="white"/>
<path d="M15.0371 3.33706C14.9959 3.28355 14.943 3.24018 14.8825 3.21028C14.8219 3.18039 14.7553 3.16476 14.6878 3.1646H4.47233L4.27333 2.53221C4.25147 2.46431 4.21351 2.40271 4.16269 2.35266C4.11187 2.3026 4.04969 2.26559 3.98146 2.24477L2.16834 1.68756C2.11259 1.67043 2.05401 1.66445 1.99594 1.66995C1.93788 1.67546 1.88147 1.69235 1.82993 1.71966C1.72585 1.77481 1.64794 1.86905 1.61334 1.98164C1.57874 2.09424 1.59029 2.21596 1.64544 2.32004C1.70059 2.42413 1.79483 2.50204 1.90742 2.53663L3.49501 3.02308L5.52041 9.42209L4.79958 10.0147L4.74209 10.0722C4.56383 10.2786 4.46283 10.5405 4.45638 10.8132C4.44993 11.0858 4.53842 11.3523 4.70671 11.5669C4.82725 11.7135 4.98041 11.8298 5.15395 11.9066C5.3275 11.9834 5.5166 12.0185 5.70614 12.0091H13.0869C13.2042 12.0091 13.3167 11.9625 13.3996 11.8796C13.4825 11.7967 13.5291 11.6842 13.5291 11.5669C13.5291 11.4496 13.4825 11.3371 13.3996 11.2542C13.3167 11.1713 13.2042 11.1247 13.0869 11.1247H5.63539C5.58446 11.1229 5.53485 11.1081 5.49134 11.0816C5.44782 11.0551 5.41188 11.0178 5.38699 10.9733C5.36209 10.9289 5.34908 10.8787 5.34921 10.8278C5.34935 10.7768 5.36262 10.7268 5.38774 10.6824L6.45351 9.79799H13.2771C13.3781 9.80093 13.4771 9.76918 13.5575 9.70803C13.638 9.64688 13.6951 9.56001 13.7193 9.46189L15.1344 3.71296C15.1479 3.64703 15.1461 3.5789 15.1292 3.51376C15.1124 3.44862 15.0809 3.38819 15.0371 3.33706Z" fill="white"/>
</g>
<defs>
<clipPath id="clip0_979_843">
<rect width="15.9201" height="15.9201" fill="white" transform="translate(0.394531 0.510742)"/>
</clipPath>
</defs>
</svg>
