<svg width="17" height="18" viewBox="0 0 17 18" fill="none" xmlns="http://www.w3.org/2000/svg">
<path d="M12.2586 0.385742H2.61875C1.43553 0.385742 0.476562 1.34471 0.476562 2.52793V15.3811C0.476562 16.5643 1.43553 17.5232 2.61875 17.5232H12.2586C13.4418 17.5232 14.4008 16.5643 14.4008 15.3811V2.52793C14.4008 1.34471 13.4401 0.385742 12.2586 0.385742ZM7.43867 4.67012C8.6219 4.67012 9.58086 5.62908 9.58086 6.8123C9.58086 7.99553 8.6219 8.95449 7.43867 8.95449C6.25578 8.95449 5.29648 7.99553 5.29648 6.8123C5.29648 5.62908 6.25712 4.67012 7.43867 4.67012ZM10.652 13.2389H4.22539C3.93084 13.2389 3.68984 12.9979 3.68984 12.7033C3.68984 11.2239 4.88813 10.0256 6.36758 10.0256H8.50977C9.98854 10.0256 11.1875 11.2245 11.1875 12.7033C11.1875 12.9979 10.9465 13.2389 10.652 13.2389ZM16.0074 2.52793H15.4719V5.74121H16.0074C16.302 5.74121 16.543 5.50022 16.543 5.20566V3.06348C16.543 2.76759 16.302 2.52793 16.0074 2.52793ZM16.0074 6.8123H15.4719V10.0256H16.0074C16.302 10.0256 16.543 9.78459 16.543 9.49004V7.34785C16.543 7.0533 16.302 6.8123 16.0074 6.8123ZM16.0074 11.0967H15.4719V14.31H16.0074C16.3032 14.31 16.543 14.0702 16.543 13.7744V11.6322C16.543 11.3377 16.302 11.0967 16.0074 11.0967Z" fill="white" fill-opacity="0.6"/>
</svg>
