<svg width="20" height="14" viewBox="0 0 20 14" fill="none" xmlns="http://www.w3.org/2000/svg">
<path d="M6.11675 1.76926C6.4347 1.68859 6.75502 1.55951 6.98518 1.38962C7.58787 0.946381 7.93762 0.0546882 7.16647 0.152447C6.942 0.18092 6.78018 0.186615 6.64778 0.191361C6.32603 0.202275 6.18271 0.207496 5.75561 0.522127C5.59257 0.64125 5.44143 0.775859 5.3043 0.924077C4.6404 0.430538 3.75725 0.209868 2.21257 0.285798C2.14964 0.285798 2.08928 0.310796 2.04478 0.355295C2.00029 0.399793 1.97529 0.460146 1.97529 0.523076C1.97529 0.586006 2.00029 0.646359 2.04478 0.690858C2.08928 0.735356 2.14964 0.760355 2.21257 0.760355H3.03687C3.17259 0.847673 3.28839 0.929297 3.39137 1.00712L1.69055 3.13314H1.58995C1.44196 3.13311 1.29601 3.16768 1.16376 3.2341C1.03152 3.30052 0.916632 3.39695 0.828289 3.51568C0.739946 3.6344 0.68059 3.77215 0.654963 3.9179C0.629337 4.06365 0.638149 4.21338 0.680696 4.35513L0.823063 4.82968C0.881749 5.02519 1.0019 5.19657 1.16569 5.31839C1.32949 5.4402 1.52819 5.50597 1.73231 5.50593H3.32777C3.52833 5.50603 3.7237 5.56965 3.88585 5.68768L4.92513 6.44318C4.95645 6.46596 4.98872 6.48684 5.02147 6.50487C5.7651 8.42208 6.54954 9.91504 7.42747 10.6663L7.59119 12.6309C7.4739 12.6508 7.36834 12.7139 7.29541 12.8079C7.22248 12.9019 7.18751 13.0198 7.19742 13.1384C7.20732 13.2569 7.26139 13.3674 7.34891 13.448C7.43643 13.5285 7.55101 13.5733 7.66997 13.5734H9.09364V9.30238H13.749C14.4514 9.98622 15.2392 10.5225 16.4493 10.7261L16.6078 12.6309C16.4905 12.6508 16.3849 12.7139 16.312 12.8079C16.2391 12.9019 16.2041 13.0198 16.214 13.1384C16.2239 13.2569 16.278 13.3674 16.3655 13.448C16.453 13.5285 16.5676 13.5733 16.6866 13.5734H18.1102V5.03137C18.1125 4.38713 17.9005 3.76043 17.5075 3.24988C17.8041 3.32961 18.0115 3.44587 18.1577 3.58682C18.422 3.8407 18.5848 4.26828 18.5848 5.03137L18.7684 7.60347C18.6569 7.77668 18.5848 8.04813 18.5848 8.35327C18.5848 8.87765 18.7974 9.30238 19.0593 9.30238C19.3213 9.30238 19.5339 8.87765 19.5339 8.35327C19.5339 8.04813 19.4618 7.77668 19.3502 7.60347L19.5339 5.03137C19.5339 4.16103 19.3521 3.41787 18.8154 2.90203C18.2853 2.39283 17.5075 2.20111 16.5504 2.18497C16.5143 2.18403 15.5267 2.18403 15.5002 2.18403V2.18735C15.4562 2.18516 15.4122 2.18406 15.3682 2.18403H8.38181C7.46401 2.18403 6.77069 2.04735 6.18935 1.86702L6.11675 1.76926Z" fill="#223DBB"/>
</svg>
