<svg width="20" height="14" viewBox="0 0 20 14" fill="none" xmlns="http://www.w3.org/2000/svg">
<path d="M5.73969 2.17033C6.05729 2.08974 6.37727 1.9608 6.60718 1.79109C7.20921 1.34834 7.55858 0.457619 6.78826 0.555271C6.56404 0.583713 6.40239 0.589402 6.27014 0.594142C5.94874 0.605045 5.80558 0.61026 5.37894 0.924548C5.21608 1.04354 5.06511 1.178 4.92813 1.32606C4.26495 0.833059 3.38276 0.61263 1.83976 0.688476C1.7769 0.688476 1.71661 0.713448 1.67216 0.757898C1.62771 0.802347 1.60274 0.862635 1.60274 0.925496C1.60274 0.988358 1.62771 1.04865 1.67216 1.09309C1.71661 1.13754 1.7769 1.16252 1.83976 1.16252H2.66317C2.79874 1.24974 2.91441 1.33127 3.01727 1.40902L1.31832 3.53272H1.21782C1.06999 3.53268 0.924202 3.56722 0.792099 3.63357C0.659996 3.69992 0.545238 3.79624 0.456991 3.91484C0.368744 4.03343 0.309453 4.17103 0.283854 4.31662C0.258255 4.46222 0.267058 4.61178 0.309559 4.75337L0.451771 5.22741C0.510393 5.42271 0.630416 5.5939 0.794029 5.71558C0.957643 5.83727 1.15613 5.90296 1.36003 5.90292H2.95375C3.15409 5.90302 3.34925 5.96658 3.51122 6.08447L4.54937 6.83915C4.58066 6.8619 4.61289 6.88276 4.6456 6.90077C5.38842 8.81589 6.17201 10.3072 7.04898 11.0576L7.21253 13.0202C7.09536 13.04 6.98992 13.1031 6.91707 13.1969C6.84422 13.2908 6.80928 13.4086 6.81918 13.527C6.82908 13.6455 6.88309 13.7558 6.97051 13.8363C7.05793 13.9168 7.17239 13.9615 7.29122 13.9616H8.71334V9.69524H13.3637C14.0652 10.3783 14.8522 10.914 16.061 11.1174L16.2193 13.0202C16.1021 13.04 15.9967 13.1031 15.9238 13.1969C15.851 13.2908 15.816 13.4086 15.8259 13.527C15.8358 13.6455 15.8898 13.7558 15.9773 13.8363C16.0647 13.9168 16.1792 13.9615 16.298 13.9616H17.7201V5.42888C17.7223 4.78534 17.5106 4.15932 17.1181 3.64933C17.4143 3.72897 17.6215 3.84511 17.7675 3.9859C18.0315 4.23951 18.1941 4.66662 18.1941 5.42888L18.3776 7.99817C18.2662 8.1712 18.1941 8.44235 18.1941 8.74716C18.1941 9.27097 18.4065 9.69524 18.6682 9.69524C18.9298 9.69524 19.1422 9.27097 19.1422 8.74716C19.1422 8.44235 19.0702 8.1712 18.9588 7.99817L19.1422 5.42888C19.1422 4.55949 18.9607 3.81714 18.4245 3.30186C17.895 2.79321 17.1181 2.6017 16.1619 2.58558C16.1259 2.58464 15.1394 2.58464 15.1129 2.58464V2.58795C15.069 2.58577 15.025 2.58467 14.9811 2.58464H8.00228C7.08549 2.58464 6.39291 2.44811 5.81221 2.26798L5.73969 2.17033Z" fill="#223DBB"/>
</svg>
