<svg width="141" height="95" viewBox="0 0 141 95" fill="none" xmlns="http://www.w3.org/2000/svg">
<path d="M17.4547 21.2256L16.4766 27.3328C16.4766 27.3328 29.2094 27.4768 31.964 27.4768C34.7194 27.4768 36.0297 31.3205 35.5948 34.075C35.157 36.8313 33.3201 40.4584 30.5638 40.5465H24.5786L26.499 28.6128H20.6037L17.3629 46.7088H30.3041C32.3145 46.7088 40.7092 43.2992 41.6699 35.0825C42.6287 26.8621 37.295 21.2219 33.4458 21.2219C29.5994 21.2219 17.4547 21.2256 17.4547 21.2256ZM52.596 28.3509C57.8866 28.3509 61.7302 32.2395 61.4687 36.7429C61.2916 39.7974 59.8951 46.7094 59.8951 46.7094H54.1695C54.1695 46.7094 54.9329 41.3169 55.478 38.2275C56.0909 34.7757 51.983 34.1627 50.1029 35.2555C48.6569 36.0996 47.7577 38.7322 48.5312 40.0644C49.4918 41.7252 52.5097 40.3259 52.6822 40.1516C52.8574 39.9764 53.2933 45.4404 53.2933 45.4404C53.2933 45.4404 51.6334 47.4957 47.4833 46.9708C44.3453 46.5745 41.1082 41.817 42.1927 37.0906C43.5048 31.3669 48.7505 28.3509 52.596 28.3509ZM64.6569 28.6126H70.5605L67.6316 46.6214H61.5564L64.6569 28.6126ZM17.2843 16.9209C64.4865 22.3655 66.062 20.7882 68.0044 20.7882C69.9451 20.7882 71.5224 22.3655 71.5224 24.308C71.5224 26.2505 69.9451 27.8277 68.0044 27.8277C66.062 27.8277 64.4865 26.2505 64.4865 24.308M69.1622 46.7092H74.9758C74.9758 46.7092 76.0245 39.6266 76.2879 37.7043C76.5512 35.7811 78.2964 35.2562 79.3039 35.0819L78.7324 28.437C78.7324 28.437 72.659 28.525 71.2588 34.8635C70.2174 39.5834 69.1623 46.7092 69.1623 46.7092M80.0904 28.6126H85.8141L87.5639 37.9652L83.2357 46.7095L80.0904 28.6126Z" fill="#E41D25"/>
<path d="M92.9425 28.6104H99.3672C99.3672 28.6104 91.7653 47.0578 90.9349 48.8929C90.0999 50.728 88.0464 54.0065 84.3762 54.0065H74.5391L75.7649 48.0203H81.7529C83.9817 48.0203 85.1185 47.6689 86.0819 44.9988C86.8673 42.816 92.9425 28.6104 92.9425 28.6104Z" fill="#E41D25"/>
<path d="M55.8306 74.0687L49.6875 73.9843C49.6875 73.9843 52.1769 55.535 53.0118 53.7017C53.8413 51.8648 55.8516 48.1064 59.52 48.1064H73.7303L72.6365 53.9182H62.3625C60.1329 53.9182 58.5997 55.0276 58.062 57.8087C57.5362 60.5183 55.8305 74.0687 55.8305 74.0687" fill="#234379"/>
<path d="M59.814 57.8972L58.8516 63.3612H66.4122L67.1077 57.8972H59.814ZM77.7316 55.4671C83.0222 55.4671 86.8676 59.3557 86.6062 63.8591C86.429 66.9155 85.0325 73.8274 85.0325 73.8274H79.307C79.307 73.8274 80.0759 68.4313 80.62 65.3474C81.2311 61.8937 77.1205 61.2807 75.2404 62.3736C73.7888 63.2177 72.8933 65.8475 73.6686 67.1825C74.6293 68.8414 77.6453 67.444 77.8233 67.2697C77.9967 67.0925 78.4344 72.5585 78.4344 72.5585C78.4344 72.5585 76.7727 74.6138 72.6171 74.0908C69.4809 73.6926 66.2474 68.9313 67.3283 64.2087C68.6404 58.485 73.8888 55.4671 77.7316 55.4671ZM86.5181 73.9813H92.3318C92.3318 73.9813 93.3805 66.8987 93.642 64.9764C93.9053 63.0532 95.6524 62.5302 96.6599 62.3577L96.0883 55.7091C96.0883 55.7091 90.0131 55.7954 88.6147 62.1338C87.5733 66.8538 86.5181 73.9813 86.5181 73.9813ZM96.1364 73.9813C96.1364 73.9813 97.6238 64.4525 97.9715 62.5302C98.3193 60.607 100.85 55.3164 105.359 55.3164C109.772 55.3164 110.558 57.8057 111.52 58.7719C112.568 57.981 114.362 55.3164 118.294 55.3164C121.751 55.3164 124.372 59.8629 124.242 62.4421C124.109 65.0186 122.883 73.9813 122.883 73.9813H116.721C116.721 73.9813 117.821 67.5924 118.12 64.7571C118.385 62.266 117.071 61.5695 116.285 61.5695C115.582 61.5695 114.1 62.3577 113.837 64.4993C113.459 67.5924 112.568 73.9813 112.568 73.9813H106.407C106.407 73.9813 107.587 66.9005 107.935 64.5856C108.287 62.266 106.756 61.9925 105.792 61.9191C104.658 61.8329 103.783 62.7504 103.522 64.2359C103.258 65.7197 102.123 73.9813 102.123 73.9813H96.1364Z" fill="#234379"/>
</svg>
