<svg width="10" height="18" viewBox="0 0 10 18" fill="none" xmlns="http://www.w3.org/2000/svg">
<path d="M9.50638 0.885999C8.70341 0.800817 7.89639 0.759364 7.08891 0.761822C4.41194 0.761822 2.74829 2.46687 2.74829 5.2115V7.07495H0.499566C0.394009 7.07495 0.292775 7.11688 0.218135 7.19152C0.143495 7.26616 0.101562 7.3674 0.101562 7.47296V10.5376C0.101562 10.6431 0.143495 10.7444 0.218135 10.819C0.292775 10.8937 0.394009 10.9356 0.499566 10.9356H2.74829V17.0808C2.74829 17.1863 2.79022 17.2875 2.86486 17.3622C2.9395 17.4368 3.04073 17.4788 3.14629 17.4788H6.3128C6.41836 17.4788 6.5196 17.4368 6.59424 17.3622C6.66888 17.2875 6.71081 17.1863 6.71081 17.0808V10.9356H8.95236C9.04899 10.9356 9.14234 10.9005 9.21498 10.8368C9.28763 10.7731 9.33462 10.6851 9.34718 10.5893L9.7428 7.5247C9.75016 7.46852 9.74545 7.41143 9.72898 7.35722C9.7125 7.30302 9.68465 7.25296 9.64727 7.21038C9.6099 7.16781 9.56386 7.1337 9.51225 7.11035C9.46064 7.08699 9.40463 7.07492 9.34798 7.07495H6.71081V5.51557C6.71081 4.74345 6.86603 4.42107 7.83159 4.42107H9.45464C9.5602 4.42107 9.66143 4.37913 9.73607 4.30449C9.81071 4.22985 9.85265 4.12862 9.85265 4.02306V1.28082C9.85269 1.18419 9.81759 1.09084 9.75387 1.0182C9.69016 0.945549 9.60219 0.898561 9.50638 0.885999ZM9.05664 3.62426L7.83079 3.62506C6.1138 3.62506 5.9148 4.70444 5.9148 5.51557V7.47375C5.9148 7.57917 5.95662 7.68028 6.03109 7.7549C6.10556 7.82952 6.20659 7.87154 6.31201 7.87175H8.89585L8.60212 10.1404H6.3128C6.20725 10.1404 6.10601 10.1823 6.03137 10.2569C5.95673 10.3316 5.9148 10.4328 5.9148 10.5384V16.682H3.54429V10.5384C3.54429 10.4328 3.50236 10.3316 3.42772 10.2569C3.35308 10.1823 3.25185 10.1404 3.14629 10.1404H0.898365V7.87175H3.14629C3.25185 7.87175 3.35308 7.82982 3.42772 7.75518C3.50236 7.68054 3.54429 7.57931 3.54429 7.47375V5.2115C3.54429 2.92378 4.86964 1.55783 7.08891 1.55783C7.89208 1.55783 8.61724 1.60161 9.05664 1.63982V3.62426Z" fill="#223DBB"/>
</svg>
