<svg width="107" height="15" viewBox="0 0 107 15" fill="none" xmlns="http://www.w3.org/2000/svg">
<path d="M5.96146 4.97496C7.22546 4.97496 7.96793 5.44626 7.96793 6.19646C7.96793 6.96433 7.30588 7.38314 5.9614 7.38314H5.4392V12.2522C5.4392 13.5956 4.95848 14.2588 3.87428 14.2588C2.79088 14.2588 2.28945 13.5956 2.28945 12.2522V7.38314H2.16862C1.04503 7.38314 0.382812 6.91179 0.382812 6.19646C0.382812 5.44626 1.02483 5.02745 2.28945 4.9749C2.28945 4.81795 2.26913 4.66095 2.26913 4.50378C2.26913 2.09599 3.47308 0.821886 5.56026 0.821886C6.86466 0.821886 7.64737 1.36277 7.64737 2.2009C7.64737 2.96804 7.10502 3.21269 6.20278 3.33476C5.54022 3.42195 5.50032 3.57941 5.50032 4.36449V4.9749M13.9597 14.346C11.3707 14.346 9.16296 12.3736 9.16296 9.49464C9.16296 6.70224 11.3912 4.62607 14.0793 4.62607C15.163 4.62607 15.966 4.94003 16.6082 5.60275C16.9694 5.04466 17.471 4.73099 18.1131 4.73099C19.1971 4.73099 19.6787 5.37583 19.6787 6.72036V12.2522C19.6787 13.5956 19.1765 14.2588 18.1132 14.2588C17.4109 14.2588 16.9494 13.9614 16.6082 13.2988C15.966 13.9798 15.0432 14.346 13.9597 14.346ZM14.4809 11.7105C15.645 11.7105 16.5075 10.8206 16.5075 9.45976C16.5075 8.11614 15.6247 7.26085 14.4809 7.26085C13.3374 7.26085 12.4346 8.09819 12.4346 9.45976C12.4346 10.8562 13.3173 11.7105 14.4809 11.7105M22.8594 6.72019C22.8594 5.37605 23.3611 4.73099 24.4452 4.73099C25.066 4.73099 25.5686 5.01001 25.9497 5.60298C26.6124 4.99308 27.3547 4.67816 28.097 4.67816C28.9798 4.67816 29.7021 5.30652 29.7021 6.03951C29.7021 7.139 28.2973 7.22597 27.0133 7.74941C26.1305 8.11591 26.0299 8.44775 26.0299 9.38978V12.2522C26.0299 13.5956 25.528 14.2588 24.4452 14.2588C23.3611 14.2588 22.8594 13.5956 22.8594 12.2522M30.9528 6.51256C30.9528 5.16865 31.4547 4.52313 32.5377 4.52313C33.1601 4.52313 33.6611 4.80243 34.0433 5.39541C34.7056 4.76727 35.5078 4.48826 36.5712 4.48826C37.9357 4.48826 38.9793 4.92428 39.7218 5.77957C40.6846 4.85447 41.608 4.48826 42.9122 4.48826C45.0997 4.48826 46.4849 5.72703 46.4849 8.10062V12.0438C46.4849 13.3873 45.9825 14.0505 44.8993 14.0505C43.8151 14.0505 43.3339 13.3873 43.3339 12.0439V8.93801C43.3339 7.54201 42.9122 6.8439 41.8888 6.8439C40.7455 6.8439 40.304 7.54201 40.304 8.90314V12.0438C40.304 13.3873 39.8021 14.0505 38.7186 14.0505C37.6351 14.0505 37.1337 13.3873 37.1337 12.0439V8.93801C37.1337 7.54201 36.7319 6.8439 35.7086 6.8439C34.5646 6.8439 34.1231 7.54201 34.1231 8.90314V12.0438C34.1231 13.3873 33.6219 14.0505 32.5377 14.0505C31.4547 14.0505 30.9528 13.3873 30.9528 12.0439M53.9428 4.76705C55.2072 4.76705 55.9495 5.23885 55.9495 5.98912C55.9495 6.75693 55.2869 7.17552 53.9428 7.17552H53.4213V12.0439C53.4213 13.3873 52.9394 14.0512 51.8559 14.0512C50.772 14.0512 50.2708 13.3873 50.2708 12.0439V7.17552H50.1496C49.0262 7.17552 48.364 6.70416 48.364 5.98912C48.364 5.23891 49.0062 4.81987 50.2708 4.76705C50.2708 4.61033 50.2504 4.45338 50.2504 4.29615C50.2504 1.88841 51.4543 0.614258 53.541 0.614258C54.8455 0.614258 55.6283 1.1552 55.6283 1.99299C55.6283 2.76114 55.0863 3.00433 54.1832 3.12713C53.5214 3.2141 53.4815 3.37178 53.4815 4.15664V4.76705M62.7692 11.5904C63.9733 11.5904 64.8559 10.6832 64.8559 9.25169C64.8559 7.85596 63.933 6.94853 62.7692 6.94853C61.6055 6.94853 60.6821 7.82103 60.6821 9.25169C60.6821 10.701 61.5649 11.5904 62.7692 11.5904ZM62.7692 4.36618C65.899 4.36618 68.1061 6.42508 68.1061 9.28656C68.1061 12.1483 65.899 14.2082 62.7692 14.2082C59.6588 14.2082 57.4104 12.1483 57.4104 9.28656C57.4104 6.42508 59.6588 4.36618 62.7692 4.36618ZM76.2855 11.5904C77.4896 11.5904 78.3724 10.6832 78.3724 9.25169C78.3724 7.85596 77.4489 6.94853 76.2855 6.94853C75.1212 6.94853 74.1979 7.82103 74.1979 9.25169C74.1979 10.701 75.0818 11.5904 76.2855 11.5904ZM76.2855 4.36618C79.4157 4.36618 81.6228 6.42508 81.6228 9.28656C81.6228 12.1483 79.4157 14.2082 76.2855 14.2082C73.1753 14.2082 70.9274 12.1483 70.9274 9.28656C70.9274 6.42508 73.1753 4.36618 76.2855 4.36618ZM89.8086 11.5373C90.9922 11.5373 91.875 10.6481 91.875 9.23447C91.875 7.78621 90.9922 6.89599 89.8086 6.89599C88.6241 6.89599 87.721 7.80365 87.721 9.23447C87.721 10.6304 88.6241 11.5373 89.8086 11.5373ZM89.3475 14.1035C86.778 14.1035 84.4703 12.0092 84.4703 9.19959C84.4703 6.40742 86.7187 4.34891 89.3475 4.34891C90.3099 4.34891 91.1128 4.59289 91.8351 5.13377V2.62067C91.8351 1.27704 92.3373 0.614258 93.4205 0.614258C94.4837 0.614258 94.9854 1.27704 94.9854 2.62067V12.0441C94.9854 13.3873 94.504 14.0512 93.4205 14.0512C92.7986 14.0512 92.2764 13.7363 91.9154 13.1605C91.273 13.7711 90.3895 14.1035 89.3475 14.1035M97.9515 12.1483C97.9515 11.4509 98.4933 10.909 99.1552 10.909C100.139 10.909 101.102 11.7125 102.085 11.7125C102.627 11.7125 102.968 11.4509 102.968 11.1539C102.968 10.7177 102.387 10.5435 101.243 10.1419C99.2956 9.4443 98.232 8.79822 98.232 7.33246C98.232 5.69215 99.8375 4.3659 102.185 4.3659C104.393 4.3659 105.898 5.32537 105.898 6.28557C105.898 6.93086 105.316 7.43744 104.593 7.43744C103.831 7.43744 102.908 6.77442 102.045 6.77442C101.584 6.77442 101.324 6.98346 101.324 7.2451C101.324 7.769 102.186 7.87363 103.51 8.3789C105.256 9.06054 106.138 9.79263 106.138 11.0486C106.138 12.7943 104.393 14.1907 101.865 14.1907C99.5169 14.1907 97.9515 13.2659 97.9515 12.1483Z" fill="#FF0000"/>
</svg>
