<svg width="12" height="17" viewBox="0 0 12 17" fill="none" xmlns="http://www.w3.org/2000/svg">
<path d="M11.0369 0.459717H1.51606C1.30564 0.459717 1.10383 0.543307 0.955039 0.692099C0.806247 0.840891 0.722656 1.0427 0.722656 1.25312V8.39374L4.68967 5.22013V7.60034H9.45009V9.18715H4.68967V11.5674L0.722656 8.39374V15.5344C0.722656 15.7448 0.806247 15.9466 0.955039 16.0954C1.10383 16.2442 1.30564 16.3278 1.51606 16.3278H11.0369C11.2473 16.3278 11.4491 16.2442 11.5979 16.0954C11.7467 15.9466 11.8303 15.7448 11.8303 15.5344V1.25312C11.8303 1.0427 11.7467 0.840891 11.5979 0.692099C11.4491 0.543307 11.2473 0.459717 11.0369 0.459717Z" fill="#223DBB"/>
</svg>
