<svg width="16" height="16" viewBox="0 0 16 16" fill="none" xmlns="http://www.w3.org/2000/svg">
<path d="M14.9298 8.13787L8.50319 0.997241C8.23256 0.695907 7.71273 0.695907 7.4421 0.997241L1.01553 8.13787C0.923031 8.2404 0.862314 8.3676 0.840763 8.50401C0.819212 8.64041 0.837757 8.78014 0.894143 8.9062C1.00839 9.16397 1.26403 9.32964 1.54608 9.32964H2.97421V14.3281C2.97421 14.5175 3.04944 14.6991 3.18335 14.833C3.31726 14.9669 3.49889 15.0421 3.68827 15.0421H5.83046C6.01984 15.0421 6.20146 14.9669 6.33538 14.833C6.46929 14.6991 6.54452 14.5175 6.54452 14.3281V11.4718H9.40077V14.3281C9.40077 14.5175 9.476 14.6991 9.60991 14.833C9.74383 14.9669 9.92545 15.0421 10.1148 15.0421H12.257C12.4464 15.0421 12.628 14.9669 12.7619 14.833C12.8959 14.6991 12.9711 14.5175 12.9711 14.3281V9.32964H14.3992C14.5375 9.33022 14.673 9.29056 14.7891 9.21549C14.9052 9.14042 14.997 9.03317 15.0533 8.90683C15.1095 8.7805 15.1278 8.64052 15.1059 8.50398C15.0839 8.36744 15.0227 8.24023 14.9298 8.13787Z" fill="white" fill-opacity="0.6"/>
</svg>
