<svg width="16" height="15" viewBox="0 0 16 15" fill="none" xmlns="http://www.w3.org/2000/svg">
<path d="M8.16016 3.88444C7.51074 3.88444 6.8759 4.07702 6.33593 4.43781C5.79595 4.79861 5.37509 5.31143 5.12657 5.91142C4.87805 6.5114 4.81302 7.17161 4.93972 7.80855C5.06642 8.44549 5.37914 9.03056 5.83835 9.48977C6.29756 9.94898 6.88263 10.2617 7.51957 10.3884C8.15651 10.5151 8.81672 10.4501 9.41671 10.2016C10.0167 9.95303 10.5295 9.53217 10.8903 8.9922C11.2511 8.45223 11.4437 7.81739 11.4437 7.16797C11.4437 6.29712 11.0977 5.46194 10.482 4.84616C9.86618 4.23038 9.031 3.88444 8.16016 3.88444ZM8.16016 9.85449C7.62881 9.85449 7.1094 9.69693 6.6676 9.40173C6.22581 9.10653 5.88147 8.68695 5.67813 8.19606C5.4748 7.70516 5.42159 7.16499 5.52525 6.64385C5.62891 6.12272 5.88478 5.64403 6.2605 5.26831C6.63621 4.89259 7.11491 4.63673 7.63604 4.53307C8.15718 4.42941 8.69735 4.48261 9.18824 4.68594C9.67914 4.88928 10.0987 5.23362 10.3939 5.67542C10.6891 6.11721 10.8467 6.63662 10.8467 7.16797C10.8467 7.88048 10.5636 8.56381 10.0598 9.06763C9.55599 9.57145 8.87267 9.85449 8.16016 9.85449ZM11.4437 0.00390625H4.87663C3.84745 0.00390625 2.86042 0.412747 2.13268 1.14049C1.40493 1.86823 0.996094 2.85526 0.996094 3.88444V10.4515C0.996094 10.9611 1.09647 11.4657 1.29148 11.9365C1.4865 12.4073 1.77233 12.8351 2.13268 13.1954C2.86042 13.9232 3.84745 14.332 4.87663 14.332H11.4437C11.9533 14.332 12.4579 14.2317 12.9287 14.0366C13.3995 13.8416 13.8273 13.5558 14.1876 13.1954C14.548 12.8351 14.8338 12.4073 15.0288 11.9365C15.2238 11.4657 15.3242 10.9611 15.3242 10.4515V3.88444C15.3242 3.37484 15.2238 2.87023 15.0288 2.39942C14.8338 1.92862 14.548 1.50083 14.1876 1.14049C13.8273 0.780147 13.3995 0.494309 12.9287 0.299294C12.4579 0.104279 11.9533 0.00390625 11.4437 0.00390625ZM14.7272 10.4515C14.7272 11.3223 14.3813 12.1575 13.7655 12.7733C13.1497 13.3891 12.3145 13.735 11.4437 13.735H4.87663C4.00578 13.735 3.1706 13.3891 2.55482 12.7733C1.93904 12.1575 1.5931 11.3223 1.5931 10.4515V3.88444C1.5931 3.01359 1.93904 2.17842 2.55482 1.56263C3.1706 0.946854 4.00578 0.600911 4.87663 0.600911H11.4437C12.3145 0.600911 13.1497 0.946854 13.7655 1.56263C14.3813 2.17842 14.7272 3.01359 14.7272 3.88444V10.4515ZM12.6377 3.28743C12.6377 3.40551 12.6027 3.52094 12.5371 3.61911C12.4715 3.71729 12.3782 3.79381 12.2692 3.839C12.1601 3.88418 12.04 3.896 11.9242 3.87297C11.8084 3.84993 11.702 3.79307 11.6185 3.70958C11.5351 3.62609 11.4782 3.51971 11.4552 3.4039C11.4321 3.2881 11.4439 3.16806 11.4891 3.05897C11.5343 2.94988 11.6108 2.85664 11.709 2.79104C11.8072 2.72544 11.9226 2.69043 12.0407 2.69043C12.199 2.69043 12.3509 2.75333 12.4628 2.86529C12.5748 2.97725 12.6377 3.1291 12.6377 3.28743Z" fill="#223DBB"/>
</svg>
