<svg width="16" height="19" viewBox="0 0 16 19" fill="none" xmlns="http://www.w3.org/2000/svg">
<path fill-rule="evenodd" clip-rule="evenodd" d="M7.97422 0.964844C7.23517 0.964844 6.0002 1.24868 4.83806 1.56466C3.64915 1.88598 2.45059 2.26622 1.74581 2.49651C1.45115 2.59382 1.18991 2.77228 0.992104 3.01138C0.794301 3.25049 0.667959 3.54055 0.627592 3.84823C-0.0107794 8.64352 1.47054 12.1974 3.26784 14.5485C4.03001 15.5542 4.93877 16.4398 5.96378 17.1758C6.37722 17.4683 6.76067 17.6921 7.08629 17.8453C7.38619 17.9867 7.70859 18.1023 7.97422 18.1023C8.23986 18.1023 8.56118 17.9867 8.86216 17.8453C9.2547 17.6545 9.63023 17.4305 9.98467 17.1758C11.0097 16.4399 11.9185 15.5542 12.6806 14.5485C14.4779 12.1974 15.9592 8.64352 15.3209 3.84823C15.2806 3.5404 15.1543 3.25017 14.9565 3.01088C14.7587 2.77159 14.4974 2.59294 14.2026 2.49544C13.1795 2.15998 12.1485 1.84928 11.1104 1.56359C9.94825 1.24975 8.71328 0.964844 7.97422 0.964844ZM7.97422 6.32031C8.35365 6.31975 8.72103 6.45348 9.0113 6.69783C9.30156 6.94218 9.49599 7.28137 9.56013 7.65534C9.62428 8.0293 9.554 8.4139 9.36175 8.74101C9.16951 9.06812 8.86769 9.31664 8.50977 9.44255L8.92214 11.574C8.93715 11.6516 8.93482 11.7314 8.91533 11.808C8.89584 11.8845 8.85967 11.9557 8.80941 12.0166C8.75916 12.0776 8.69605 12.1266 8.62462 12.1602C8.55319 12.1939 8.4752 12.2113 8.39623 12.2113H7.55221C7.47334 12.2112 7.39547 12.1936 7.32417 12.1599C7.25287 12.1262 7.1899 12.0771 7.13976 12.0162C7.08962 11.9553 7.05355 11.8841 7.03412 11.8077C7.01469 11.7313 7.01239 11.6515 7.02738 11.574L7.43868 9.44255C7.08075 9.31664 6.77894 9.06812 6.58669 8.74101C6.39445 8.4139 6.32417 8.0293 6.38832 7.65534C6.45246 7.28137 6.64688 6.94218 6.93715 6.69783C7.22742 6.45348 7.5948 6.31975 7.97422 6.32031Z" fill="white" fill-opacity="0.6"/>
</svg>
