<svg width="16" height="19" viewBox="0 0 16 19" fill="none" xmlns="http://www.w3.org/2000/svg">
<path d="M8.28009 18.069C9.29829 18.069 10.1314 17.2359 10.1314 16.2177H6.42882C6.42882 16.7087 6.62386 17.1796 6.97104 17.5267C7.31822 17.8739 7.7891 18.069 8.28009 18.069ZM13.8339 12.5151V7.88695C13.8339 5.04525 12.3159 2.66636 9.66855 2.03693V1.4075C9.66855 0.63922 9.04837 0.019043 8.28009 0.019043C7.51181 0.019043 6.89164 0.63922 6.89164 1.4075V2.03693C4.23506 2.66636 2.72627 5.03599 2.72627 7.88695V12.5151L0.875 14.3664V15.292H15.6852V14.3664L13.8339 12.5151Z" fill="black"/>
</svg>
