<svg width="16" height="15" viewBox="0 0 16 15" fill="none" xmlns="http://www.w3.org/2000/svg">
<path d="M15.0454 12.8295L14.8836 12.6867C14.4244 12.2776 14.0225 11.8084 13.6887 11.2919C13.3242 10.5791 13.1057 9.80058 13.046 9.00215V6.6505C13.0492 5.39643 12.5943 4.18436 11.7668 3.24203C10.9393 2.29971 9.79618 1.69199 8.55221 1.53306V0.918963C8.55221 0.750414 8.48525 0.588768 8.36607 0.469586C8.24689 0.350403 8.08524 0.283447 7.91669 0.283447C7.74814 0.283447 7.5865 0.350403 7.46732 0.469586C7.34813 0.588768 7.28118 0.750414 7.28118 0.918963V1.54258C6.04835 1.71297 4.91904 2.32436 4.10242 3.26352C3.2858 4.20268 2.8372 5.40596 2.83971 6.6505V9.00215C2.78009 9.80058 2.56159 10.5791 2.19705 11.2919C1.869 11.8072 1.47356 12.2762 1.02123 12.6867L0.859375 12.8295V14.172H15.0454V12.8295Z" fill="white" fill-opacity="0.6"/>
</svg>
