<svg width="19" height="22" viewBox="0 0 19 22" fill="none" xmlns="http://www.w3.org/2000/svg">
<path d="M6.19891 8.5373C7.25924 8.35709 8.04562 7.39142 8.16531 6.23779C8.28681 5.0646 8.56077 0.34999 6.79097 0.649887C2.20014 1.42853 2.52233 9.16076 6.19891 8.5373ZM12.2392 8.5373C15.9148 9.16076 16.237 1.42853 11.6462 0.649432C9.87686 0.349535 10.1504 5.06415 10.2714 6.23734C10.3915 7.39142 11.1788 8.35709 12.2392 8.5373ZM4.31307 12.1802C4.31307 11.5668 4.09418 11.0107 3.74149 10.6061C3.16126 9.84793 1.31683 8.31477 0.864029 8.7075C-0.0811686 9.52938 -0.0506783 11.5522 0.518625 13.0221C0.81124 13.8394 1.51798 14.4142 2.34394 14.4142C3.43113 14.4142 4.31307 13.4139 4.31307 12.1802ZM17.5727 8.7075C17.1208 8.31477 15.2764 9.84793 14.6961 10.6061C14.3434 11.0107 14.1241 11.5668 14.1241 12.1802C14.1241 13.4139 15.007 14.4142 16.0932 14.4142C16.9196 14.4142 17.6268 13.8394 17.9195 13.0221C18.4874 11.5522 18.5188 9.52938 17.5727 8.7075ZM13.8702 15.6597C12.1973 14.8256 12.2492 13.2192 11.8687 11.7533C11.5661 10.5842 10.4944 9.7196 9.21881 9.7196C8.62714 9.71801 8.05092 9.90844 7.5767 10.2623C7.10248 10.6161 6.75587 11.1143 6.58891 11.6819C6.18162 13.0844 6.42691 14.7173 4.60341 15.6488C3.12213 16.1317 2.52233 16.8361 2.52233 18.5022C2.52233 19.8556 3.68415 21.3045 5.18363 21.4847C6.8565 21.7369 8.16166 21.4074 9.21881 20.8049C10.276 21.4074 11.5802 21.7364 13.2558 21.4847C14.7544 21.3045 15.9167 19.861 15.9167 18.5022C15.9162 16.7997 15.3546 16.1653 13.8702 15.6597ZM11.8965 17.6958H10.1622L10.1645 19.5161H8.27316L8.27589 17.6958H6.43555V15.8754H8.27634L8.27361 14.0551H10.1649L10.1626 15.8754H11.8965V17.6958Z" fill="#223DBB"/>
</svg>
