<svg width="19" height="14" viewBox="0 0 19 14" fill="none" xmlns="http://www.w3.org/2000/svg">
<path d="M3.60618 0.0380859C2.86525 0.0380859 2.15467 0.33242 1.63075 0.856337C1.10683 1.38025 0.8125 2.09084 0.8125 2.83177V3.39051H18.6891V2.83177C18.6891 2.09084 18.3948 1.38025 17.8708 0.856337C17.3469 0.33242 16.6363 0.0380859 15.8954 0.0380859H3.60693H3.60618ZM0.8125 10.6541V4.50798H18.6891V10.6541C18.6891 11.395 18.3948 12.1056 17.8708 12.6295C17.3469 13.1534 16.6363 13.4478 15.8954 13.4478H3.60693C2.866 13.4478 2.15541 13.1534 1.6315 12.6295C1.10758 12.1056 0.813245 11.395 0.813245 10.6541H0.8125ZM12.9155 8.60538C12.7673 8.60538 12.6252 8.66425 12.5204 8.76903C12.4156 8.87381 12.3567 9.01593 12.3567 9.16412C12.3567 9.3123 12.4156 9.45442 12.5204 9.5592C12.6252 9.66399 12.7673 9.72285 12.9155 9.72285H15.5229C15.6711 9.72285 15.8132 9.66399 15.918 9.5592C16.0228 9.45442 16.0817 9.3123 16.0817 9.16412C16.0817 9.01593 16.0228 8.87381 15.918 8.76903C15.8132 8.66425 15.6711 8.60538 15.5229 8.60538H12.9155Z" fill="#223DBB"/>
</svg>
