<svg width="16" height="17" viewBox="0 0 16 17" fill="none" xmlns="http://www.w3.org/2000/svg">
<path fill-rule="evenodd" clip-rule="evenodd" d="M7.85821 0.921875C5.89524 0.921875 4.10654 1.57026 3.04836 2.1C2.95275 2.14781 2.86366 2.19474 2.78066 2.23993C2.61639 2.32946 2.47646 2.4129 2.36521 2.48634L3.56897 4.25853L4.13566 4.48407C6.35024 5.60136 9.32011 5.60136 11.5351 4.48407L12.1783 4.15032L13.3169 2.48634C13.081 2.3325 12.8357 2.19359 12.5825 2.07045C11.5299 1.54636 9.78424 0.921875 7.85821 0.921875ZM5.05826 2.92786C4.63199 2.8481 4.21098 2.74245 3.79756 2.61149C4.78882 2.17127 6.26637 1.70411 7.85777 1.70411C8.96029 1.70411 10.0028 1.92835 10.865 2.21256C9.85464 2.35466 8.77646 2.59585 7.74913 2.89266C6.94083 3.12646 5.99606 3.10126 5.05826 2.92786ZM11.994 5.12854L11.8876 5.18243C9.45092 6.4114 6.21943 6.4114 3.78278 5.18243L3.68196 5.13115C0.0219893 9.14704 -2.77231 16.5652 7.85821 16.5652C18.4879 16.5652 15.6253 9.00841 11.994 5.12854ZM7.40625 8.74419C7.17574 8.74419 6.95467 8.83576 6.79167 8.99876C6.62868 9.16175 6.53711 9.38282 6.53711 9.61333C6.53711 9.84385 6.62868 10.0649 6.79167 10.2279C6.95467 10.3909 7.17574 10.4825 7.40625 10.4825V8.74419ZM8.2754 7.87504V7.44047H7.40625V7.87504C6.94523 7.87504 6.50309 8.05818 6.1771 8.38418C5.8511 8.71017 5.66796 9.15231 5.66796 9.61333C5.66796 10.0744 5.8511 10.5165 6.1771 10.8425C6.50309 11.1685 6.94523 11.3516 7.40625 11.3516V13.0899C7.22651 13.09 7.05117 13.0343 6.90439 12.9305C6.7576 12.8268 6.64659 12.6801 6.58665 12.5106C6.54827 12.4019 6.46828 12.313 6.36429 12.2632C6.2603 12.2135 6.14082 12.2072 6.03213 12.2455C5.92345 12.2839 5.83446 12.3639 5.78474 12.4679C5.73503 12.5719 5.72866 12.6914 5.76704 12.8001C5.88692 13.139 6.10892 13.4325 6.40248 13.64C6.69604 13.8476 7.04672 13.9591 7.40625 13.9591V14.3936H8.2754V13.9591C8.73642 13.9591 9.17856 13.7759 9.50456 13.4499C9.83055 13.1239 10.0137 12.6818 10.0137 12.2208C10.0137 11.7597 9.83055 11.3176 9.50456 10.9916C9.17856 10.6656 8.73642 10.4825 8.2754 10.4825V8.74419C8.65348 8.74419 8.9755 8.98538 9.09544 9.32347C9.11323 9.37879 9.14194 9.42997 9.17986 9.474C9.21778 9.51803 9.26415 9.554 9.31622 9.57979C9.36829 9.60559 9.425 9.62068 9.483 9.62417C9.541 9.62767 9.59911 9.61949 9.6539 9.60014C9.70869 9.58078 9.75904 9.55063 9.80197 9.51148C9.8449 9.47232 9.87955 9.42495 9.90385 9.37217C9.92816 9.3194 9.94164 9.26228 9.94348 9.2042C9.94533 9.14612 9.93551 9.08827 9.91461 9.03405C9.79473 8.69509 9.57274 8.40163 9.27917 8.19407C8.98561 7.98651 8.63493 7.87505 8.2754 7.87504ZM8.2754 11.3516V13.0899C8.50591 13.0899 8.72698 12.9983 8.88998 12.8354C9.05297 12.6724 9.14454 12.4513 9.14454 12.2208C9.14454 11.9903 9.05297 11.7692 8.88998 11.6062C8.72698 11.4432 8.50591 11.3516 8.2754 11.3516Z" fill="#223DBB"/>
</svg>
