<svg width="9" height="9" viewBox="0 0 9 9" fill="none" xmlns="http://www.w3.org/2000/svg">
<path d="M6.33401 1.92131L7.25824 2.84511L6.33401 1.92131ZM6.92835 1.10748L4.42925 3.60658C4.30012 3.73553 4.21206 3.89981 4.17615 4.07873L3.94531 5.23424L5.10082 5.00297C5.27974 4.96719 5.44381 4.87948 5.57298 4.75031L8.07208 2.25121C8.14718 2.17611 8.20675 2.08696 8.24739 1.98884C8.28803 1.89071 8.30895 1.78555 8.30895 1.67934C8.30895 1.57314 8.28803 1.46797 8.24739 1.36985C8.20675 1.27173 8.14718 1.18258 8.07208 1.10748C7.99698 1.03238 7.90782 0.97281 7.8097 0.932167C7.71158 0.891524 7.60642 0.870605 7.50021 0.870605C7.39401 0.870605 7.28884 0.891524 7.19072 0.932167C7.0926 0.97281 7.00345 1.03238 6.92835 1.10748V1.10748Z" stroke="#223DBB" stroke-width="0.872743" stroke-linecap="round" stroke-linejoin="round"/>
<path d="M7.4362 6.10688V7.41599C7.4362 7.64746 7.34425 7.86944 7.18058 8.03312C7.01691 8.19679 6.79492 8.28874 6.56345 8.28874H1.76337C1.5319 8.28874 1.30992 8.19679 1.14625 8.03312C0.982574 7.86944 0.890625 7.64746 0.890625 7.41599V2.61591C0.890625 2.38444 0.982574 2.16246 1.14625 1.99878C1.30992 1.83511 1.5319 1.74316 1.76337 1.74316H3.07248" stroke="#223DBB" stroke-width="0.872743" stroke-linecap="round" stroke-linejoin="round"/>
</svg>
