<svg width="24" height="24" viewBox="0 0 24 24" fill="none" xmlns="http://www.w3.org/2000/svg">
<path d="M21.1647 6.60246C21.0685 6.3708 20.8844 6.1867 20.6527 6.09049C20.5387 6.04191 20.4163 6.01615 20.2925 6.01465H15.5521C15.3006 6.01465 15.0595 6.11454 14.8817 6.29233C14.7039 6.47013 14.604 6.71128 14.604 6.96273C14.604 7.21417 14.7039 7.45532 14.8817 7.63312C15.0595 7.81092 15.3006 7.91081 15.5521 7.91081H18.0076L12.7078 13.2106L9.58863 10.0819C9.50049 9.99305 9.39564 9.92252 9.2801 9.87438C9.16457 9.82625 9.04065 9.80147 8.91549 9.80147C8.79034 9.80147 8.66642 9.82625 8.55088 9.87438C8.43535 9.92252 8.33049 9.99305 8.24236 10.0819L2.55388 15.7704C2.46502 15.8585 2.39448 15.9634 2.34635 16.0789C2.29822 16.1945 2.27344 16.3184 2.27344 16.4435C2.27344 16.5687 2.29822 16.6926 2.34635 16.8081C2.39448 16.9237 2.46502 17.0285 2.55388 17.1167C2.64201 17.2055 2.74687 17.2761 2.86241 17.3242C2.97794 17.3723 3.10186 17.3971 3.22701 17.3971C3.35217 17.3971 3.47609 17.3723 3.59162 17.3242C3.70716 17.2761 3.81202 17.2055 3.90015 17.1167L8.91549 12.0918L12.0347 15.2205C12.1228 15.3094 12.2277 15.3799 12.3432 15.428C12.4587 15.4762 12.5827 15.5009 12.7078 15.5009C12.833 15.5009 12.9569 15.4762 13.0724 15.428C13.188 15.3799 13.2928 15.3094 13.3809 15.2205L19.3444 9.2476V11.7031C19.3444 11.9546 19.4443 12.1957 19.6221 12.3735C19.7999 12.5513 20.041 12.6512 20.2925 12.6512C20.5439 12.6512 20.785 12.5513 20.9628 12.3735C21.1406 12.1957 21.2405 11.9546 21.2405 11.7031V6.96273C21.239 6.83884 21.2133 6.71644 21.1647 6.60246Z" fill="#223DBB"/>
</svg>
