<svg width="15" height="15" viewBox="0 0 15 15" fill="none" xmlns="http://www.w3.org/2000/svg">
<path d="M10.8451 9.40174C11.7065 8.22627 12.0924 6.7689 11.9254 5.32119C11.7584 3.87348 11.051 2.54219 9.94463 1.59367C8.83826 0.645152 7.41454 0.149352 5.95832 0.205463C4.50209 0.261575 3.12074 0.865458 2.09064 1.8963C1.06054 2.92714 0.45764 4.30892 0.402571 5.76518C0.347502 7.22145 0.844321 8.64481 1.79363 9.75051C2.74294 10.8562 4.07473 11.5627 5.52257 11.7286C6.9704 11.8945 8.42749 11.5077 9.60234 10.6454H9.60145C9.62814 10.681 9.65661 10.7148 9.68863 10.7477L13.1137 14.1728C13.2805 14.3397 13.5068 14.4335 13.7428 14.4336C13.9787 14.4337 14.2051 14.34 14.372 14.1732C14.539 14.0064 14.6328 13.7801 14.6329 13.5441C14.633 13.3081 14.5393 13.0818 14.3725 12.9148L10.9474 9.48981C10.9156 9.45761 10.8814 9.42787 10.8451 9.40085V9.40174ZM11.0747 5.98204C11.0747 6.62459 10.9481 7.26084 10.7022 7.85448C10.4563 8.44811 10.0959 8.9875 9.64156 9.44185C9.18721 9.89619 8.64782 10.2566 8.05419 10.5025C7.46055 10.7484 6.8243 10.8749 6.18176 10.8749C5.53921 10.8749 4.90296 10.7484 4.30932 10.5025C3.71569 10.2566 3.1763 9.89619 2.72195 9.44185C2.2676 8.9875 1.9072 8.44811 1.6613 7.85448C1.41541 7.26084 1.28885 6.62459 1.28885 5.98204C1.28885 4.68437 1.80436 3.43984 2.72195 2.52224C3.63955 1.60464 4.88408 1.08914 6.18176 1.08914C7.47943 1.08914 8.72396 1.60464 9.64156 2.52224C10.5592 3.43984 11.0747 4.68437 11.0747 5.98204Z" fill="white"/>
</svg>
