<svg width="17" height="14" viewBox="0 0 17 14" fill="none" xmlns="http://www.w3.org/2000/svg">
<path d="M14.5421 4.2017V4.59971C14.5421 8.6076 11.5014 13.2006 5.9373 13.2006C4.29472 13.2041 2.68702 12.7268 1.3125 11.8275C1.55121 11.8599 1.792 11.8745 2.03289 11.8712C3.39446 11.875 4.71775 11.4208 5.79004 10.5817C5.15748 10.5724 4.54396 10.3639 4.03666 9.98594C3.52936 9.60797 3.1541 9.07972 2.96421 8.47626C3.15263 8.51621 3.34473 8.53622 3.53734 8.53596C3.80629 8.53602 4.07403 8.49988 4.33335 8.4285C3.64822 8.29192 3.03184 7.92149 2.58969 7.3806C2.14754 6.83972 1.9071 6.16198 1.90951 5.46338V5.42358C2.32868 5.65773 2.79863 5.78614 3.27864 5.7977C2.63968 5.37723 2.18539 4.72865 2.0086 3.98448C1.8318 3.2403 1.94584 2.4567 2.32741 1.79378C3.0877 2.72889 4.03627 3.49352 5.11146 4.03797C6.18665 4.58243 7.36439 4.89451 8.5681 4.95393C8.50852 4.72803 8.48039 4.49499 8.48452 4.26141C8.46211 3.64407 8.63051 3.03482 8.96679 2.51662C9.30306 1.99842 9.79088 1.59646 10.3638 1.36546C10.9367 1.13446 11.5669 1.08565 12.1686 1.22568C12.7703 1.36571 13.3142 1.68777 13.7262 2.14801C14.4035 2.01132 15.0533 1.76246 15.6486 1.4117C15.4228 2.12467 14.9425 2.72961 14.2994 3.11118C14.9002 3.02838 15.486 2.85949 16.0386 2.60969C15.6381 3.22486 15.1314 3.76392 14.5421 4.2017V4.2017Z" stroke="#223DBB" stroke-width="0.636805" stroke-linecap="round" stroke-linejoin="round"/>
</svg>
