<svg width="12" height="13" viewBox="0 0 12 13" fill="none" xmlns="http://www.w3.org/2000/svg">
<path d="M5.97813 0.715576C6.73565 0.715576 7.46215 1.0165 7.9978 1.55215C8.53345 2.0878 8.83438 2.8143 8.83438 3.57183C8.83438 4.32935 8.53345 5.05585 7.9978 5.5915C7.46215 6.12715 6.73565 6.42808 5.97813 6.42808C5.2206 6.42808 4.4941 6.12715 3.95845 5.5915C3.4228 5.05585 3.12188 4.32935 3.12188 3.57183C3.12188 2.8143 3.4228 2.0878 3.95845 1.55215C4.4941 1.0165 5.2206 0.715576 5.97813 0.715576ZM5.97813 7.8562C9.13428 7.8562 11.6906 9.13437 11.6906 10.7125V12.1406H0.265625V10.7125C0.265625 9.13437 2.82197 7.8562 5.97813 7.8562Z" fill="white"/>
</svg>
