<svg width="23" height="27" viewBox="0 0 23 27" fill="none" xmlns="http://www.w3.org/2000/svg">
<path d="M18.1427 7.18294C18.1427 10.7038 15.2892 13.5573 11.7236 13.5573C8.24756 13.5573 5.34922 10.7038 5.34922 7.18294C5.34922 3.66261 8.24756 0.808594 11.7236 0.808594C15.2892 0.808594 18.1427 3.66261 18.1427 7.18294ZM14.9108 18.8361C13.5811 19.1896 12.5204 20.4396 12.5204 21.9236V23.1188C12.5204 23.328 12.6498 23.5322 12.7992 23.6816L13.596 24.4783C13.9048 24.7921 14.4128 24.7921 14.7215 24.4783C15.0352 24.1696 15.0352 23.6616 14.7215 23.3529L14.114 22.7901V21.9236C14.114 21.0422 14.8709 20.33 15.7075 20.33C16.6338 20.33 17.346 21.0422 17.346 21.9236V22.7901L16.7832 23.3529C16.4695 23.6616 16.4695 24.1696 16.7832 24.4783C17.092 24.7921 17.5999 24.7921 17.9087 24.4783L18.7055 23.6816C18.8549 23.5322 18.9395 23.328 18.9395 23.1188V21.9236C18.9395 20.4396 17.9236 19.1896 16.5492 18.8361V16.1867C20.2094 17.0781 22.9235 20.335 22.9235 24.314V24.7124C22.9235 25.5939 22.2114 26.306 21.3299 26.306H2.20687C1.32691 26.306 0.613281 25.5939 0.613281 24.7124V24.314C0.613281 20.3798 3.32885 17.0781 6.98763 16.1867V19.2494C5.83726 19.593 4.99565 20.6587 4.99565 21.9236C4.99565 23.4624 6.24562 24.7124 7.78443 24.7124C9.32323 24.7124 10.5732 23.4624 10.5732 21.9236C10.5732 20.6587 9.73159 19.593 8.58122 19.2494V15.9576C8.71568 15.9527 8.84516 15.9477 8.97962 15.9477H14.5572C14.6916 15.9477 14.8211 15.9527 14.9556 15.9576L14.9108 18.8361ZM8.9348 21.9236C8.9348 22.586 8.44676 23.1188 7.73961 23.1188C7.12209 23.1188 6.54442 22.586 6.54442 21.9236C6.54442 21.2613 7.12209 20.7284 7.73961 20.7284C8.44676 20.7284 8.9348 21.2613 8.9348 21.9236Z" fill="#223DBB"/>
</svg>
