<svg width="16" height="16" viewBox="0 0 16 16" fill="none" xmlns="http://www.w3.org/2000/svg">
<path d="M8.19774 0.704102C6.89136 0.703962 5.60784 1.04676 4.47549 1.69823C3.34315 2.34969 2.40166 3.287 1.74515 4.41643C1.08864 5.54586 0.740128 6.82784 0.734446 8.13421C0.728763 9.44057 1.06611 10.7255 1.71277 11.8606L1.04114 14.2188C0.998088 14.3719 0.996598 14.5338 1.03682 14.6876C1.07705 14.8415 1.15753 14.9819 1.27 15.0944C1.38247 15.2069 1.52287 15.2874 1.67676 15.3276C1.83065 15.3678 1.99248 15.3663 2.1456 15.3233L4.50377 14.6516C5.4968 15.2171 6.60641 15.5469 7.74706 15.6157C8.88771 15.6845 10.0289 15.4904 11.0827 15.0484C12.1365 14.6065 13.0747 13.9284 13.825 13.0665C14.5753 12.2046 15.1176 11.1819 15.4102 10.0772C15.7027 8.9726 15.7377 7.81553 15.5124 6.69524C15.2871 5.57495 14.8075 4.52137 14.1106 3.61573C13.4138 2.71009 12.5182 1.97659 11.493 1.47177C10.4679 0.966957 9.34046 0.704316 8.19774 0.704102ZM8.19774 15.0322C6.96297 15.0351 5.75064 14.7023 4.69033 14.0696C4.64405 14.046 4.59301 14.0332 4.54108 14.0322H4.45899L1.98142 14.7412C1.9308 14.7548 1.87749 14.7548 1.82685 14.7412C1.77622 14.7277 1.73005 14.701 1.69299 14.664C1.65592 14.6269 1.62927 14.5807 1.61571 14.5301C1.60216 14.4795 1.60217 14.4261 1.61576 14.3755L2.3247 11.8979C2.34569 11.8199 2.33496 11.7368 2.29485 11.6666C1.52262 10.3634 1.20307 8.84137 1.38599 7.33763C1.56891 5.83389 2.24403 4.43286 3.30617 3.35279C4.36831 2.27271 5.75784 1.57424 7.25832 1.36618C8.75879 1.15811 10.2859 1.45214 11.6019 2.20245C12.9179 2.95276 13.9487 4.11723 14.5339 5.51446C15.1191 6.91169 15.2257 8.46324 14.8373 9.9274C14.4488 11.3916 13.5869 12.6861 12.386 13.6095C11.1851 14.5328 9.71257 15.033 8.19774 15.0322ZM11.9663 9.54724L10.444 8.68158C10.3052 8.60207 10.1477 8.56086 9.98775 8.56217C9.82778 8.56348 9.67103 8.60727 9.53354 8.68905L8.50371 9.30844C7.88337 8.98671 7.37769 8.48104 7.05597 7.8607L7.67536 6.83087C7.75714 6.69338 7.80093 6.53663 7.80224 6.37666C7.80355 6.21669 7.76234 6.05925 7.68282 5.92043L6.81716 4.39807C6.74528 4.27357 6.64197 4.17013 6.51755 4.0981C6.39313 4.02607 6.25198 3.98797 6.10822 3.98763C5.47617 3.98763 4.86989 4.2382 4.42227 4.68442C3.97464 5.13065 3.72218 5.73614 3.7202 6.36819C3.71922 7.19201 3.88064 8.00795 4.19522 8.76935C4.50981 9.53075 4.97139 10.2227 5.55358 10.8056C6.13576 11.3884 6.82714 11.8508 7.58816 12.1663C8.34918 12.4818 9.16493 12.6442 9.98876 12.6442H9.99622C10.6283 12.6422 11.2338 12.3898 11.68 11.9421C12.1262 11.4945 12.3768 10.8882 12.3768 10.2562C12.3764 10.1124 12.3383 9.97127 12.2663 9.84686C12.1943 9.72244 12.0908 9.61912 11.9663 9.54724ZM9.99622 12.0472H9.98876C8.48388 12.0452 7.04132 11.446 5.97791 10.3812C4.9145 9.31641 4.3172 7.87306 4.31721 6.36819C4.31918 5.89448 4.50875 5.44084 4.84441 5.10657C5.18008 4.7723 5.6345 4.58463 6.10822 4.58464C6.14643 4.58516 6.18382 4.59579 6.21659 4.61546C6.24936 4.63512 6.27634 4.6631 6.29479 4.69657L7.16791 6.21894C7.19338 6.2659 7.20672 6.31849 7.20672 6.37192C7.20672 6.42535 7.19338 6.47793 7.16791 6.5249L6.46642 7.68906C6.44058 7.72999 6.42564 7.77685 6.42303 7.82518C6.42041 7.87351 6.43022 7.92171 6.4515 7.96518C6.84014 8.83115 7.53325 9.52427 8.39923 9.91291C8.4427 9.93419 8.4909 9.94399 8.53923 9.94138C8.58756 9.93877 8.63442 9.92383 8.67534 9.89798L9.8395 9.1965C9.88647 9.17103 9.93906 9.15769 9.99249 9.15769C10.0459 9.15769 10.0985 9.17103 10.1455 9.1965L11.6678 10.0696C11.7013 10.0881 11.7293 10.115 11.749 10.1478C11.7686 10.1806 11.7792 10.218 11.7798 10.2562C11.7798 10.7299 11.5921 11.1843 11.2578 11.52C10.9236 11.8557 10.4699 12.0452 9.99622 12.0472Z" fill="#223DBB"/>
</svg>
